<svg viewBox="0 0 179 59" fill="none" xmlns="http://www.w3.org/2000/svg">
  <path
    d="M21.0998 23.0545L21.0174 22.9735C20.8525 22.8114 20.7701 22.7034 20.7701 22.6494L20.7289 4.74057C20.7289 4.06527 20.5915 3.444 20.3168 2.87676C20.0695 2.2825 19.7124 1.76927 19.2453 1.33708C18.8058 0.904895 18.2838 0.580754 17.6793 0.364659C17.0749 0.121553 16.4155 0 15.7012 0L3.79137 0.405179V0.486213H3.46169V0.52673H3.42048C2.871 0.52673 2.32153 0.499719 1.77205 0.445696C1.22258 0.36466 0.673106 0.243107 0.123632 0.0810367V0.283625L0.0824211 0.324142V0.607767L0.0412106 0.648284V0.850872L0 0.931906V1.09398C0 1.93134 0.164842 2.59313 0.494527 3.07934C1.20884 4.21384 3.18695 4.78109 6.42885 4.78109H8.03606C6.85469 5.10523 5.8519 5.67247 5.02769 6.48283C3.90127 7.48226 3.33806 8.7248 3.33806 10.2105V10.413L3.37927 10.4536V10.6561C1.51105 10.8993 0.576948 11.9122 0.576948 13.695C0.576948 14.2352 0.618158 14.6944 0.70058 15.0726C0.810474 15.4507 1.00279 15.7479 1.27753 15.964V15.9234C1.38742 16.0045 1.52479 16.1395 1.68963 16.3286C1.88195 16.4907 2.06053 16.6393 2.22537 16.7743C2.22537 15.8829 2.56879 15.4372 3.25563 15.4372L3.33806 15.3967H3.42048V21.2313C3.36553 21.3663 3.31058 21.5149 3.25563 21.6769C3.22816 21.785 3.21442 21.866 3.21442 21.9201V22.0011C3.15948 22.0551 3.11827 22.1361 3.09079 22.2442C3.09079 22.3252 3.07706 22.3793 3.04958 22.4063H3.42048L3.46169 22.3657H3.62653L3.66774 22.3252C4.0249 22.2712 4.5469 22.0281 5.23374 21.5959C7.1569 20.3264 8.11848 18.8812 8.11848 17.2605V6.52334C8.11848 5.76701 8.37948 5.21327 8.90148 4.86212L8.81906 4.74057C8.92896 4.71356 9.05259 4.70005 9.18995 4.70005V21.2313C7.29427 21.2853 5.5909 21.785 4.07985 22.7304C2.56879 23.6758 1.4149 24.9994 0.618158 26.7011C2.40395 25.6747 4.32711 25.1615 6.38764 25.1615C8.47564 25.1615 10.6186 25.7287 12.8165 26.8632C14.6298 24.9994 17.3634 23.8244 21.0174 23.3382L21.0998 23.0545ZM10.7147 21.1907V16.6122C11.2093 16.3961 11.6351 16.2881 11.9923 16.2881C12.5417 16.153 12.8852 16.0855 13.0225 16.0855L13.2286 16.1665C13.9429 16.1665 14.8907 16.3016 16.0721 16.5717V22.8925C14.616 22.0281 12.8302 21.4609 10.7147 21.1907ZM14.0116 9.23803H12.322C11.5802 9.23803 11.0444 9.07596 10.7147 8.75181V4.45694C11.2642 4.48395 11.8 4.49746 12.322 4.49746H13.9292C14.2589 4.52447 14.5199 4.53798 14.7122 4.53798H15.0831L15.1243 4.5785C15.7562 4.90264 16.0721 5.25379 16.0721 5.63196V8.79233C14.7809 9.08946 14.094 9.23803 14.0116 9.23803ZM13.1462 14.5864L12.6929 14.6269C12.3906 14.6809 12.1159 14.7349 11.8686 14.7889C11.3192 14.924 10.9345 14.9915 10.7147 14.9915V10.4941C11.1818 10.6291 11.7038 10.6967 12.2807 10.6967C12.3357 10.7237 12.4181 10.7372 12.528 10.7372H13.888C14.1352 10.7372 14.5336 10.6832 15.0831 10.5751C15.3303 10.5481 15.5364 10.5076 15.7012 10.4536C15.7836 10.4536 15.8523 10.4536 15.9073 10.4536C15.9622 10.4265 16.0172 10.413 16.0721 10.413V15.0321C15.0281 14.7349 14.0528 14.5864 13.1462 14.5864ZM1.31874 16.0045H1.35995C1.33247 16.0045 1.31874 15.991 1.31874 15.964H1.27753L1.31874 16.0045Z"
    fill="white"
  />
  <path
    d="M35.0757 14.6674C34.746 14.8295 34.0866 15.1941 33.0976 15.7614C32.136 16.3016 30.8172 17.0579 29.1413 18.0304C28.8941 18.1654 28.6193 18.341 28.3171 18.5571V21.5959C29.1688 21.731 29.9518 21.9065 30.6661 22.1226C31.4079 22.3387 32.0948 22.5954 32.7267 22.8925L33.7157 21.8795L34.746 22.8114L30.9958 26.8632L30.5837 26.6606C30.0068 26.3635 29.4436 26.0799 28.8941 25.8097C28.3446 25.5666 27.7127 25.3776 26.9984 25.2425C25.7895 24.9994 24.7455 24.8778 23.8664 24.8778C23.5367 24.8778 23.207 24.9049 22.8773 24.9589C22.5476 24.9859 22.218 25.0264 21.8883 25.0804C21.9432 24.9454 21.9982 24.8373 22.0531 24.7563C22.1081 24.6482 22.163 24.5672 22.218 24.5132V24.5537C22.4103 24.2566 22.5614 24.0135 22.6713 23.8244C22.8086 23.6353 22.8911 23.5273 22.9185 23.5002C23.1109 23.2571 23.4818 22.933 24.0312 22.5278V12.7225C24.0312 12.3174 23.8114 11.6421 23.3719 10.6967V10.1294L23.7428 10.4941H23.99L24.0312 10.5346H24.1549L24.2785 10.5751H24.4433C26.6138 10.5751 29.0589 9.68372 31.7788 7.90094C31.9162 8.38716 32.0948 8.91389 32.3146 9.48113C32.5343 10.0484 32.8366 10.6832 33.2212 11.3855C33.5783 12.0067 33.908 12.5875 34.2102 13.1277C34.5399 13.6409 34.8421 14.0866 35.1169 14.4648L35.0757 14.6674ZM28.6468 11.4665L28.3171 11.5475V16.7338L30.5425 15.3157C30.4326 15.1536 30.2952 14.951 30.1304 14.7079C29.993 14.4378 29.8282 14.1001 29.6359 13.695C29.4436 13.3438 29.265 12.9792 29.1001 12.601C28.9353 12.2228 28.7842 11.8447 28.6468 11.4665Z"
    fill="white"
  />
  <path
    d="M49.0415 2.35003H48.7118L48.6294 2.39054H48.7118C47.7777 2.39054 46.8711 1.93134 45.992 1.01294C45.7722 0.742825 45.5936 0.553743 45.4562 0.445696C45.3463 0.310637 45.2639 0.216095 45.209 0.162071C43.066 2.70118 40.8544 3.97073 38.5741 3.97073H38.1619C38.0246 3.97073 37.8872 3.94372 37.7498 3.8897V4.29487L37.7911 4.37591C37.846 4.51097 37.8872 4.63252 37.9147 4.74057C37.9422 4.84861 37.9696 4.92965 37.9971 4.98367V4.94316L38.0383 8.99492H37.9971C37.7498 8.99492 37.6125 8.98141 37.585 8.9544C37.2278 8.9544 37.0355 8.9409 37.008 8.91389C36.6234 8.91389 36.3349 8.87337 36.1426 8.79233V9.52165L36.1838 9.60269V9.84579L36.225 9.96734V11.0208C36.1976 11.1559 36.1838 11.4395 36.1838 11.8717H36.4723L36.5547 11.8312C37.2965 11.8312 37.791 11.7906 38.0383 11.7096V22.0821C36.9394 22.5683 36.225 23.4462 35.8954 24.7158C36.0602 24.6617 36.2113 24.6212 36.3487 24.5942C36.5135 24.5672 36.6646 24.5537 36.802 24.5537L36.8844 24.5132H36.9668C38.5054 24.5132 40.2087 25.31 42.0769 26.9037L46.4865 22.7304L45.6211 21.9201L44.7144 22.852C44.4397 22.6629 44.2062 22.5143 44.0138 22.4063C43.8215 22.2982 43.6979 22.2172 43.6429 22.1632C43.4232 22.1632 43.2034 22.0956 42.9836 21.9606C42.7088 21.9606 42.4891 21.9201 42.3242 21.839V11.7906C42.544 11.8447 42.7638 11.8717 42.9836 11.8717H43.8078C43.8353 11.8717 43.849 11.8852 43.849 11.9122C43.904 11.9392 43.9589 11.9527 44.0138 11.9527H44.1787C45.0029 12.1148 45.5249 12.1958 45.7447 12.1958L45.7859 12.2363H46.3216L46.0744 11.9527V11.5475L46.0332 11.4665V11.2639C46.0332 10.7237 46.0744 10.1834 46.1568 9.6432V9.44062L46.198 9.35958V9.23803L46.2392 9.19751V8.83285C46.0194 8.88687 45.8134 8.92739 45.6211 8.9544C45.4562 8.9544 45.3326 8.9544 45.2502 8.9544C45.0578 9.06245 44.0963 9.11647 42.3654 9.11647L42.3242 9.07596V4.49746L42.3654 4.45694H42.3242C42.5165 4.42993 42.6539 4.37591 42.7363 4.29487L42.8187 4.25435L42.86 4.17332C43.4369 4.76758 44.3023 5.06471 45.4562 5.06471C45.7035 5.06471 45.8546 5.0512 45.9095 5.02419C46.5964 4.99718 47.2695 4.75407 47.9288 4.29487C48.5882 3.80866 49.0141 3.22791 49.2064 2.55261L49.0415 2.35003Z"
    fill="white"
  />
  <path
    d="M54.2048 26.8632C52.7761 25.6477 51.0865 24.8103 49.1359 24.3511C49.7678 23.3517 50.4271 22.6764 51.114 22.3252V5.79403L50.8667 4.53798C50.8667 4.51097 50.853 4.49746 50.8255 4.49746C50.8255 4.47045 50.8255 4.44344 50.8255 4.41643V4.45694C50.798 4.40292 50.7843 4.30838 50.7843 4.17332L50.7019 4.05177L50.6607 4.01125C50.6607 3.93021 50.6469 3.86268 50.6194 3.80866L50.5782 3.72762V3.20089C50.7431 3.28193 50.8667 3.33595 50.9491 3.36297C51.0316 3.36297 51.114 3.36297 51.1964 3.36297C52.158 3.36297 53.669 2.55261 55.7296 0.931906L55.9356 1.09398C55.8257 1.31007 55.7296 1.56668 55.6471 1.86381C55.5647 2.16094 55.4686 2.49859 55.3587 2.87676C55.1663 3.63308 55.0702 4.21384 55.0702 4.61901V21.9201C55.3999 22.0821 55.8395 22.3657 56.3889 22.7709L56.3477 22.7304H56.3889L56.4713 22.7709C56.6087 22.906 56.6911 23.0005 56.7186 23.0545L56.8422 23.1761L57.4604 22.6089L58.2846 23.6623L54.2048 26.8632Z"
    fill="white"
  />
  <path
    d="M58.7898 23.5813C58.7348 23.6623 58.7073 23.7163 58.7073 23.7433C58.7348 23.7433 58.776 23.7028 58.831 23.6218L58.7898 23.5813ZM72.5129 21.8795V9.80527C70.2051 9.07596 67.9248 8.31963 65.6719 7.53628C63.529 8.77883 61.3173 9.75125 59.037 10.4536V10.5346C59.037 10.8317 59.2431 11.2504 59.6552 11.7906V22.4873L59.2019 23.1356C59.1194 23.2436 59.037 23.3382 58.9546 23.4192L58.831 23.6218C61.1113 23.8919 63.5152 25.2425 66.0428 27.6736L68.8039 24.7968L71.9359 27.6736L75.6037 23.5813L74.0789 23.3787C73.3371 23.2706 72.8151 22.7709 72.5129 21.8795ZM67.6913 23.0545C66.7297 22.3252 65.5758 21.6364 64.2296 20.9881V10.6967L64.0647 10.5751V10.5346C64.2296 10.5346 65.4384 11.0208 67.6913 11.9932V23.0545Z"
    fill="white"
  />
  <path
    d="M81.3931 26.0529C79.9645 24.7293 78.5771 24.0675 77.2309 24.0675C76.599 24.0675 76.1319 24.2971 75.8297 24.7563V24.189C75.8297 24.108 75.9396 23.7974 76.1594 23.2571C76.544 22.4468 77.066 21.866 77.7254 21.5149V11.7096H77.0248C76.8325 11.8177 76.6127 11.8987 76.3654 11.9527C76.338 11.9797 76.2143 12.0202 75.9945 12.0743L75.9533 12.1553H75.8709L75.4176 12.3984V12.1148C75.4176 12.0067 75.4313 11.9257 75.4588 11.8717V11.7501L75.5 11.6691C75.5 11.561 75.5137 11.48 75.5412 11.426V11.1424C75.5412 11.0613 75.5412 10.9803 75.5412 10.8993C75.5687 10.8182 75.5962 10.7237 75.6236 10.6156V10.3725L75.5824 10.251V9.88631C75.4725 9.58918 75.4176 9.10297 75.4176 8.42767C75.7747 8.61676 76.0632 8.75182 76.283 8.83285C76.5303 8.91389 76.7226 8.96791 76.86 8.99492C76.9149 8.96791 77.0935 8.9544 77.3957 8.9544H77.7254V7.13111L77.6842 7.05007V6.60438C77.6567 6.57737 77.6292 6.53685 77.6017 6.48283C77.5743 6.4288 77.5468 6.37478 77.5193 6.32076C77.5193 6.23972 77.5056 6.17219 77.4781 6.11817V6.07765C77.4232 6.02363 77.3957 5.91558 77.3957 5.75351L77.6842 5.67247L77.7254 5.75351H77.9314V5.79403C79.47 5.79403 80.9261 4.95666 82.2997 3.28193V3.80866L82.2585 3.84918C82.2311 3.9032 82.2036 3.98424 82.1761 4.09228C82.1761 4.20033 82.1486 4.33539 82.0937 4.49746V4.53798C82.0937 4.61901 82.08 4.68654 82.0525 4.74057C81.9426 5.17276 81.8876 5.4969 81.8876 5.71299V8.9544H83.1652L83.2476 8.99492C83.6872 8.99492 84.168 8.80584 84.69 8.42767V8.87337C84.6625 8.92739 84.6488 9.00843 84.6488 9.11647C84.5663 9.25153 84.5251 9.58918 84.5251 10.1294H84.5663C84.5663 10.6967 84.635 11.453 84.7724 12.3984L84.3191 12.1553L84.2779 12.1148H84.2366C83.9344 12.0067 83.591 11.9257 83.2064 11.8717C82.8217 11.7906 82.3822 11.7366 81.8876 11.7096V21.0287C82.08 21.2177 82.2997 21.3123 82.547 21.3123L82.6706 21.3528C82.7531 21.3798 82.808 21.4068 82.8355 21.4338C82.9179 21.5149 83.0003 21.5554 83.0827 21.5554C83.1102 21.5824 83.1377 21.6094 83.1652 21.6364C83.2201 21.6364 83.2613 21.6499 83.2888 21.6769H83.2476C83.33 21.731 83.4262 21.812 83.5361 21.9201C83.6734 22.0011 83.8245 22.0821 83.9894 22.1632L84.4015 21.758L85.2257 22.6899L81.3931 26.0529Z"
    fill="white"
  />
  <path
    d="M91.895 26.8227C91.4555 26.7957 91.0159 26.7011 90.5763 26.5391C90.1367 26.404 89.7246 26.1744 89.34 25.8503C88.5158 25.202 88.1037 24.4592 88.1037 23.6218V13.4113C87.6916 13.3843 87.3756 13.1412 87.1558 12.682L86.5789 13.0062L86.0019 12.1958L86.1256 11.9932L86.1668 12.0337L86.2492 11.9527L86.3316 11.9122C86.6064 11.6691 86.9086 11.399 87.2383 11.1018C87.5679 10.7777 88.0075 10.386 88.557 9.92683C88.8592 9.73774 89.2301 9.44061 89.6697 9.03544L89.8345 8.91389C89.9169 8.83285 89.9994 8.75182 90.0818 8.67078V8.18457C91.2082 9.75125 92.1973 10.5346 93.0489 10.5346C93.2413 10.5346 93.6808 10.3455 94.3677 9.96734V10.4536C94.3127 10.6156 94.2853 10.8047 94.2853 11.0208C94.0655 11.6421 93.777 12.1553 93.4198 12.5605C93.0627 12.9386 92.6918 13.2088 92.3072 13.3708V22.0011C92.3072 22.1632 92.3758 22.3793 92.5132 22.6494C92.7605 23.1626 93.3237 23.4192 94.2028 23.4192C94.505 23.4192 94.8622 23.3382 95.2743 23.1761L95.4391 23.4597L91.895 26.8227ZM90.7824 7.81991H90.4527V7.77939H90.0406L89.9582 7.73887C88.9141 7.73887 88.2685 7.32019 88.0213 6.48283L87.3619 6.80697L86.8261 5.91558C87.0459 5.69949 87.2795 5.53741 87.5267 5.42937C87.774 5.29431 88.0075 5.17276 88.2273 5.06471L88.1449 5.14574C88.2273 5.09172 88.3372 5.01068 88.4746 4.90264C88.6394 4.76758 88.7905 4.64603 88.9279 4.53798C89.1202 4.40292 89.34 4.24085 89.5873 4.05177C89.862 3.86268 90.1505 3.6601 90.4527 3.444C91.167 4.47045 91.9088 4.98367 92.678 4.98367C92.8154 4.92965 92.9253 4.90264 93.0077 4.90264C93.1176 4.87563 93.2413 4.83511 93.3786 4.78109H93.3374L93.4198 4.70005H93.4611L93.5023 4.65953H93.5435L93.5847 4.61901H93.8732V4.98367C93.8732 5.36184 93.777 5.7265 93.5847 6.07765C93.4198 6.40179 93.1863 6.69892 92.8841 6.96904C92.6094 7.21214 92.2797 7.41473 91.895 7.5768C91.5379 7.73887 91.167 7.81991 90.7824 7.81991Z"
    fill="white"
  />
  <path
    d="M110.565 22.2442C110.73 23.0275 111.046 23.5273 111.513 23.7433C108.546 24.1755 106.17 25.3505 104.384 27.2684C102.79 25.6477 100.015 24.6347 96.0592 24.2296C95.9493 24.2296 95.8944 24.189 95.8944 24.108C95.8944 23.9459 96.0592 23.6623 96.3889 23.2571C96.856 22.6359 97.1994 22.2172 97.4192 22.0011V11.7501C96.9796 11.2099 96.7598 10.7777 96.7598 10.4536V10.413C99.6171 10.251 101.925 9.44062 103.683 7.98198C106.843 9.52165 109.398 10.386 111.348 10.5751C110.826 11.1694 110.565 11.5881 110.565 11.8312V22.2442ZM105.744 12.3984C103.518 11.48 102.268 11.0208 101.994 11.0208C101.939 11.0208 101.911 11.0343 101.911 11.0613V21.7175C102.351 22.1767 103.628 22.6224 105.744 23.0545V12.3984Z"
    fill="white"
  />
  <path
    d="M127.77 10.6156C127.853 10.6426 127.894 10.7237 127.894 10.8587C127.894 11.0748 127.729 11.48 127.399 12.0743V23.8244H129.006C128.732 23.8244 127.482 25.0804 125.256 27.5925C125.146 27.1333 123.91 25.7962 121.547 23.5813H122.495V12.3174L120.888 10.9803L118.786 12.5605V23.6623H120.558C118.745 24.7158 117.522 25.7152 116.891 26.6606C116.396 27.3629 116.121 27.7141 116.066 27.7141C116.039 27.7141 116.025 27.7006 116.025 27.6736L116.066 27.5925C115.819 26.5121 114.542 25.31 112.234 23.9865L112.151 23.7433H113.759V13.2088C113.374 11.7231 112.728 10.9533 111.822 10.8993L115.448 8.22509C117.206 9.22452 118.223 9.94033 118.498 10.3725C119.13 10.3185 120.545 9.57567 122.742 8.14405L123.278 7.73887C125.146 9.19751 126.644 10.1564 127.77 10.6156Z"
    fill="white"
  />
  <path
    d="M129.661 23.5813C129.606 23.6623 129.578 23.7163 129.578 23.7433C129.606 23.7433 129.647 23.7028 129.702 23.6218L129.661 23.5813ZM143.384 21.8795V9.80527C141.076 9.07596 138.796 8.31963 136.543 7.53628C134.4 8.77883 132.188 9.75125 129.908 10.4536V10.5346C129.908 10.8317 130.114 11.2504 130.526 11.7906V22.4873L130.073 23.1356C129.99 23.2436 129.908 23.3382 129.826 23.4192L129.702 23.6218C131.982 23.8919 134.386 25.2425 136.914 27.6736L139.675 24.7968L142.807 27.6736L146.475 23.5813L144.95 23.3787C144.208 23.2706 143.686 22.7709 143.384 21.8795ZM138.562 23.0545C137.601 22.3252 136.447 21.6364 135.1 20.9881V10.6967L134.936 10.5751V10.5346C135.1 10.5346 136.309 11.0208 138.562 11.9932V23.0545Z"
    fill="white"
  />
  <path
    d="M150.039 7.65784C151.742 8.65727 152.731 9.37309 153.006 9.80527H153.129C153.239 9.80527 153.404 9.76476 153.624 9.68372C154.311 9.44061 155.327 8.87337 156.674 7.98198L157.251 7.5768C158.652 8.84636 159.943 9.6432 161.124 9.96734C161.042 10.5346 160.712 11.0343 160.135 11.4665C159.613 11.8717 158.94 12.1148 158.116 12.1958C157.924 12.2228 157.745 12.2363 157.58 12.2363C156.674 12.2363 155.63 12.0743 154.448 11.7501C154.201 11.6961 153.981 11.6691 153.789 11.6691C153.322 11.6691 153.088 11.8312 153.088 12.1553V23.2571H154.86C153.047 24.3106 151.811 25.31 151.151 26.2554C150.657 26.9848 150.368 27.3494 150.286 27.3494V27.2684L150.245 27.2279C150.217 27.1468 150.19 27.0658 150.162 26.9848C150.052 26.7417 149.888 26.4715 149.668 26.1744C149.008 25.283 147.951 24.4186 146.495 23.5813L146.453 23.3382H148.061V12.8036C147.593 11.48 146.907 10.7912 146 10.7372L150.039 7.65784Z"
    fill="white"
  />
  <path
    d="M178.959 10.3725V10.5751L178.918 10.6156C178.918 10.8047 178.849 11.0208 178.712 11.2639C178.602 11.48 178.464 11.6961 178.299 11.9122C178.135 12.1283 177.942 12.3309 177.722 12.52C177.503 12.682 177.297 12.8036 177.104 12.8846V23.7028C177.104 25.1074 175.909 26.0799 173.519 26.6201C173.189 26.6741 172.873 26.7146 172.571 26.7417C172.296 26.7957 172.049 26.8227 171.829 26.8227H171.582C171.555 26.8227 171.431 26.8362 171.211 26.8632C168.299 27.0793 166.843 27.7276 166.843 28.8081C166.843 29.2132 167.104 29.4158 167.626 29.4158C167.873 29.4158 168.711 29.0241 170.14 28.2408C171.513 27.4845 172.75 27.1063 173.849 27.1063C174.81 27.1063 175.634 27.4034 176.321 27.9977C177.008 28.592 177.352 29.3348 177.352 30.2262C177.352 31.0095 177.049 31.6578 176.445 32.171C175.868 32.6842 175.154 32.9409 174.302 32.9409C173.533 32.9409 173.038 32.8328 172.818 32.6167V31.2391C173.258 31.4822 173.684 31.6038 174.096 31.6038H174.137L174.22 31.5633H174.343C174.508 31.5633 174.7 31.4957 174.92 31.3607C175.14 31.2256 175.25 31.077 175.25 30.915C175.25 30.6449 175.071 30.5098 174.714 30.5098L174.632 30.4693H174.59C173.959 30.4693 173.107 30.7934 172.035 31.4417C171.404 31.8469 170.854 32.1575 170.387 32.3736C169.947 32.5897 169.604 32.7248 169.357 32.7788C169.219 32.8058 169.055 32.8193 168.862 32.8193C168.67 32.8463 168.423 32.8598 168.12 32.8598C167.653 32.8598 167.2 32.7653 166.76 32.5762C166.321 32.4141 165.936 32.1845 165.607 31.8874C165.277 31.5903 165.002 31.2391 164.782 30.8339C164.59 30.4558 164.494 30.0371 164.494 29.5779V29.3753H164.535C164.59 27.9977 165.291 26.9848 166.637 26.3365C166.087 26.0934 165.593 25.7557 165.153 25.3235C164.494 24.7293 164.164 24.1215 164.164 23.5002V12.9251C164.164 12.3039 163.505 11.9257 162.186 11.7906V11.507L166.596 8.10353C166.788 8.21158 166.994 8.36014 167.214 8.54923C167.434 8.73831 167.64 8.9544 167.832 9.19751C168.299 9.81878 168.533 10.278 168.533 10.5751L168.574 10.6561V10.8993L168.615 10.9398V12.52L174.797 8.42767C175.648 9.56217 176.582 10.1294 177.599 10.1294H177.681L177.722 10.0889C178.19 10.0889 178.615 9.94033 179 9.6432V10.2915L178.959 10.3725ZM172.571 24.3511V13.2898C172.461 13.2628 172.351 13.2223 172.241 13.1682C172.132 13.1142 172.008 13.0602 171.871 13.0062L171.17 12.682L168.656 14.3838V24.108C168.656 24.6482 169.137 25.0129 170.099 25.202H170.263C170.291 25.202 170.318 25.202 170.346 25.202C170.373 25.229 170.414 25.2425 170.469 25.2425C170.497 25.2425 170.511 25.2425 170.511 25.2425C170.538 25.2695 170.566 25.283 170.593 25.283H170.84L170.923 25.2425C171.307 25.2425 171.678 25.175 172.035 25.0399C172.393 24.8778 172.571 24.6482 172.571 24.3511Z"
    fill="white"
  />
  <path
    d="M17.4666 51.0886L17.4007 51.0238C17.2687 50.8941 17.2028 50.8076 17.2028 50.7644L17.1698 36.4332C17.1698 35.8928 17.0599 35.3956 16.84 34.9417C16.6422 34.4661 16.3563 34.0554 15.9826 33.7096C15.6308 33.3637 15.2131 33.1043 14.7294 32.9314C14.2458 32.7369 13.7181 32.6396 13.1465 32.6396L3.61581 32.9638V33.0287H3.35199V33.0611H3.31901C2.8793 33.0611 2.43959 33.0395 1.99988 32.9963C1.56018 32.9314 1.12047 32.8341 0.680758 32.7045V32.8666L0.647782 32.899V33.126L0.614803 33.1584V33.3205L0.581827 33.3853V33.515C0.581827 34.1851 0.713741 34.7147 0.977565 35.1038C1.54919 36.0117 3.13213 36.4656 5.72641 36.4656H7.01256C6.06718 36.725 5.26472 37.1789 4.60516 37.8274C3.70375 38.6272 3.25305 39.6215 3.25305 40.8104V40.9725L3.28603 41.0049V41.167C1.79102 41.3616 1.04352 42.1721 1.04352 43.5988C1.04352 44.0311 1.0765 44.3986 1.14246 44.7012C1.2304 45.0038 1.38429 45.2416 1.60415 45.4145V45.3821C1.69209 45.4469 1.80202 45.555 1.93393 45.7063C2.08783 45.836 2.23073 45.9549 2.36264 46.063C2.36264 45.3497 2.63746 44.993 3.1871 44.993L3.25305 44.9606H3.31901V49.6296C3.27504 49.7377 3.23107 49.8565 3.1871 49.9862C3.16511 50.0727 3.15412 50.1375 3.15412 50.1808V50.2456C3.11015 50.2889 3.07717 50.3537 3.05518 50.4402C3.05518 50.505 3.04419 50.5482 3.02221 50.5699H3.31901L3.35199 50.5374H3.4839L3.51688 50.505C3.80269 50.4618 4.22041 50.2672 4.77005 49.9214C6.30902 48.9054 7.07851 47.749 7.07851 46.4521V37.8598C7.07851 37.2546 7.28737 36.8114 7.7051 36.5304L7.63914 36.4332C7.72708 36.4116 7.82602 36.4007 7.93594 36.4007V49.6296C6.41895 49.6728 5.05586 50.0727 3.84666 50.8292C2.63746 51.5858 1.71407 52.645 1.0765 54.0068C2.50555 53.1854 4.04453 52.7747 5.69343 52.7747C7.36432 52.7747 9.07918 53.2286 10.838 54.1365C12.2891 52.645 14.4766 51.7047 17.4007 51.3156L17.4666 51.0886ZM9.15613 49.5972V45.9333C9.55187 45.7604 9.89264 45.6739 10.1785 45.6739C10.6182 45.5658 10.893 45.5118 11.0029 45.5118L11.1678 45.5766C11.7394 45.5766 12.4979 45.6847 13.4433 45.9009V50.9589C12.2781 50.2672 10.849 49.8133 9.15613 49.5972ZM11.7944 40.0322H10.4423C9.84867 40.0322 9.41995 39.9025 9.15613 39.6431V36.2062C9.59584 36.2278 10.0246 36.2386 10.4423 36.2386H11.7284C11.9923 36.2602 12.2011 36.271 12.355 36.271H12.6518L12.6848 36.3035C13.1905 36.5629 13.4433 36.8439 13.4433 37.1465V39.6755C12.41 39.9133 11.8603 40.0322 11.7944 40.0322ZM11.1018 44.3121L10.7391 44.3445C10.4972 44.3878 10.2774 44.431 10.0795 44.4742C9.63981 44.5823 9.33201 44.6363 9.15613 44.6363V41.0373C9.52988 41.1454 9.94761 41.1994 10.4093 41.1994C10.4533 41.2211 10.5192 41.2319 10.6072 41.2319H11.6954C11.8933 41.2319 12.2121 41.1886 12.6518 41.1022C12.8497 41.0806 13.0146 41.0481 13.1465 41.0049C13.2124 41.0049 13.2674 41.0049 13.3114 41.0049C13.3553 40.9833 13.3993 40.9725 13.4433 40.9725V44.6688C12.6078 44.431 11.8274 44.3121 11.1018 44.3121ZM1.63712 45.4469H1.6701C1.64812 45.4469 1.63712 45.4361 1.63712 45.4145H1.60415L1.63712 45.4469Z"
    fill="white"
  />
  <path
    d="M21.8901 38.7677C23.2532 39.5674 24.0446 40.1403 24.2645 40.4861H24.3634C24.4514 40.4861 24.5833 40.4537 24.7592 40.3888C25.3088 40.1943 26.1222 39.7404 27.1995 39.0271L27.6612 38.7028C28.7825 39.7188 29.8158 40.3564 30.7612 40.6158C30.6952 41.0697 30.4314 41.4696 29.9697 41.8155C29.552 42.1397 29.0133 42.3343 28.3538 42.3991C28.1999 42.4207 28.057 42.4315 27.925 42.4315C27.1995 42.4315 26.3641 42.3018 25.4187 42.0424C25.2208 41.9992 25.045 41.9776 24.8911 41.9776C24.5173 41.9776 24.3304 42.1073 24.3304 42.3667V51.2508H25.7485C24.2975 52.0938 23.3081 52.8936 22.7805 53.6501C22.3847 54.2337 22.1539 54.5255 22.0879 54.5255V54.4607L22.0549 54.4283C22.033 54.3634 22.011 54.2986 21.989 54.2337C21.9011 54.0392 21.7691 53.823 21.5933 53.5853C21.0656 52.8719 20.2192 52.1802 19.0539 51.5101L19.021 51.3156H20.3071V42.8855C19.9334 41.8263 19.3837 41.2751 18.6582 41.2319L21.8901 38.7677Z"
    fill="white"
  />
  <path
    d="M32.0066 51.5101C31.9626 51.575 31.9407 51.6182 31.9407 51.6398C31.9626 51.6398 31.9956 51.6074 32.0396 51.5426L32.0066 51.5101ZM42.9883 50.1484V40.4861C41.1415 39.9025 39.3167 39.2973 37.5139 38.6704C35.7991 39.6647 34.0293 40.4429 32.2045 41.0049V41.0697C32.2045 41.3075 32.3694 41.6426 32.6991 42.0749V50.6347L32.3364 51.1535C32.2704 51.24 32.2045 51.3156 32.1385 51.3805L32.0396 51.5426C33.8644 51.7587 35.7881 52.8395 37.8107 54.7849L40.0203 52.4829L42.5266 54.7849L45.4617 51.5101L44.2415 51.348C43.6479 51.2616 43.2302 50.8617 42.9883 50.1484ZM39.1299 51.0886C38.3604 50.505 37.437 49.9538 36.3597 49.435V41.1994L36.2278 41.1022V41.0697C36.3597 41.0697 37.3271 41.4588 39.1299 42.237V51.0886Z"
    fill="white"
  />
  <path
    d="M58.471 54.1689C58.1852 54.5364 57.5256 55.0875 56.4923 55.8225C56.4484 55.8441 56.4044 55.8765 56.3604 55.9198C55.8328 56.2872 55.4041 56.579 55.0743 56.7952C54.7445 57.033 54.5136 57.2275 54.3817 57.3788C54.1399 57.595 53.8651 57.8436 53.5573 58.1246C53.2715 58.4056 52.9747 58.6974 52.6669 59C52.513 58.9352 52.414 58.8811 52.3701 58.8379C52.3481 58.7947 52.2821 58.7298 52.1722 58.6433H52.2052C52.1172 58.5785 52.0183 58.5028 51.9084 58.4164C51.7984 58.3515 51.6885 58.2651 51.5786 58.157H51.6116C51.5676 58.1138 51.5236 58.0813 51.4797 58.0597C51.4577 58.0597 51.3917 58.0273 51.2818 57.9624C50.7981 57.595 50.1056 57.4112 49.2042 57.4112C48.4127 57.4112 47.5223 57.7031 46.5329 58.2867C46.9287 57.141 47.6432 56.2872 48.6765 55.7252C49.5999 55.2064 50.5892 54.947 51.6445 54.947C52.9197 54.947 53.898 55.1848 54.5796 55.6604C55.3711 54.9471 55.7668 54.385 55.7668 53.9743C55.7668 53.715 55.525 53.3475 55.0413 52.8719C54.5796 52.5045 54.2938 52.0181 54.1839 51.4129C52.8208 52.1046 51.6665 53.0232 50.7212 54.1689C49.6878 52.8503 48.6545 52.191 47.6212 52.191C47.5113 52.191 47.4453 52.2019 47.4234 52.2235C47.2255 52.2235 46.8627 52.2991 46.3351 52.4504C46.2911 52.472 46.1702 52.4829 45.9723 52.4829C45.9723 52.137 46.1482 51.7263 46.5 51.2508C46.6758 51.013 46.8298 50.8292 46.9617 50.6996C47.0936 50.5699 47.2145 50.4834 47.3244 50.4402V42.0424C47.3024 41.9992 47.2804 41.9344 47.2585 41.8479C47.2365 41.8047 47.2145 41.7614 47.1925 41.7182C47.1925 41.675 47.1815 41.6209 47.1595 41.5561C47.0496 41.2751 46.9726 41.1022 46.9287 41.0373V40.6807C47.2365 40.8968 47.6432 41.0049 48.1489 41.0049L48.2478 41.0373H48.4127C49.9077 41.0373 51.5126 40.6374 53.2275 39.8376C53.3594 39.7728 53.5793 39.6647 53.8871 39.5134C54.1949 39.3621 54.5466 39.1676 54.9424 38.9298C55.7118 40.2051 56.6132 40.8428 57.6466 40.8428H57.7455C57.9214 40.7563 58.1302 40.659 58.3721 40.551C58.6359 40.4213 58.8558 40.3024 59.0316 40.1943C58.9877 40.7779 58.8338 41.2859 58.57 41.7182C58.3061 42.1289 57.9544 42.4748 57.5146 42.7558V49.4026C57.5146 50.0079 57.7785 50.6455 58.3061 51.3156L58.3391 51.3805H58.3061L58.471 51.5101L58.504 51.575H58.471C58.8448 52.0722 59.0316 52.4937 59.0316 52.8395C59.0316 53.2718 58.8448 53.715 58.471 54.1689ZM54.0849 50.1159V43.08C53.4913 43.08 52.9637 42.7666 52.502 42.1397C52.458 42.0965 52.403 42.0316 52.3371 41.9452C52.2931 41.8371 52.2272 41.729 52.1392 41.6209V41.6534H52.1062V41.6209C51.8424 41.7506 51.6116 41.8155 51.4137 41.8155C51.3258 41.8587 51.2378 41.902 51.1499 41.9452C51.0619 41.9884 50.941 42.01 50.7871 42.01V49.9538C50.919 49.997 51.0619 50.0187 51.2158 50.0187C51.8314 50.1267 52.3701 50.4077 52.8318 50.8617L52.8647 50.8292L52.9967 50.7644L52.9637 50.7968C53.0516 50.7536 53.1945 50.6671 53.3924 50.5374C53.6122 50.3861 53.8101 50.2564 53.986 50.1484C54.03 50.1484 54.0629 50.1375 54.0849 50.1159Z"
    fill="white"
  />
  <path
    d="M71.8599 50.4402C71.9918 51.067 72.2446 51.4669 72.6184 51.6398C70.2439 51.9857 68.3422 52.926 66.9131 54.4607C65.638 53.1637 63.4175 52.3532 60.2516 52.0289C60.1636 52.0289 60.1197 51.9965 60.1197 51.9317C60.1197 51.802 60.2516 51.575 60.5154 51.2508C60.8891 50.7536 61.164 50.4185 61.3399 50.2456V42.0424C60.9881 41.6101 60.8122 41.2643 60.8122 41.0049V40.9725C63.0987 40.8428 64.9454 40.1943 66.3525 39.0271C68.8808 40.2592 70.9255 40.9509 72.4865 41.1022C72.0687 41.5777 71.8599 41.9128 71.8599 42.1073V50.4402ZM68.0014 42.5612C66.2206 41.8263 65.2203 41.4588 65.0004 41.4588C64.9564 41.4588 64.9345 41.4696 64.9345 41.4913V50.0187C65.2862 50.3861 66.3085 50.7428 68.0014 51.0886V42.5612Z"
    fill="white"
  />
  <path
    d="M86.2873 41.1346C86.3532 41.1562 86.3862 41.2211 86.3862 41.3291C86.3862 41.5021 86.2543 41.8263 85.9905 42.3018V51.7047H87.2766C87.0568 51.7047 86.0564 52.7098 84.2756 54.7201C84.1877 54.3526 83.1983 53.2826 81.3076 51.5101H82.0661V42.4964L80.7799 41.4264L79.098 42.6909V51.575H80.5161C79.0651 52.418 78.0867 53.2178 77.581 53.9743C77.1853 54.5364 76.9655 54.8174 76.9215 54.8174C76.8995 54.8174 76.8885 54.8065 76.8885 54.7849L76.9215 54.7201C76.7236 53.8555 75.7013 52.8936 73.8545 51.8344L73.7886 51.6398H75.0747V43.2097C74.7669 42.0208 74.2503 41.4048 73.5247 41.3616L76.4268 39.2216C77.8339 40.0214 78.6473 40.5942 78.8672 40.94C79.3729 40.8968 80.5051 40.3024 82.2639 39.1567L82.6927 38.8325C84.1877 39.9998 85.3859 40.7671 86.2873 41.1346Z"
    fill="white"
  />
  <path
    d="M101.156 39.6107C100.585 41.3399 99.3755 43.134 97.5287 44.993L100.629 44.9282C100.629 44.9498 100.618 44.993 100.596 45.0578C100.596 45.1227 100.596 45.1659 100.596 45.1875C100.574 45.2308 100.563 45.2848 100.563 45.3497L100.53 45.3821V45.4469L100.464 45.5118V45.5766L100.431 45.6415C100.431 45.6847 100.42 45.7171 100.398 45.7387C100.398 45.7604 100.398 45.782 100.398 45.8036V45.7712C100.376 45.836 100.354 45.9117 100.332 45.9981L100.299 46.1278V51.6398C100.299 51.6831 100.31 51.7155 100.332 51.7371V51.8344L100.365 51.8992V51.8668C100.387 51.8884 100.398 51.91 100.398 51.9317L100.431 52.0938L100.398 52.0289L100.365 51.9965C100.365 52.0181 100.387 52.0613 100.431 52.1262C100.497 52.2343 100.563 52.3424 100.629 52.4504L100.761 52.7098C100.519 52.7098 100.376 52.699 100.332 52.6774H100.365C100.343 52.6558 100.31 52.645 100.266 52.645C100.002 52.645 99.7822 52.645 99.6063 52.645C99.4304 52.6234 99.2875 52.5801 99.1776 52.5153C98.8478 52.5153 98.6499 52.5045 98.584 52.4829H98.3861C96.7152 52.4829 95.3411 53.0449 94.2638 54.1689L93.3075 53.2286C93.1316 53.0773 92.9667 52.9584 92.8128 52.8719C92.6589 52.8071 92.483 52.7747 92.2852 52.7747C92.1533 52.7098 91.9664 52.6774 91.7245 52.6774C90.7132 52.6774 90.0097 53.1529 89.6139 54.104H88.6576C88.8335 53.3475 89.1413 52.5801 89.581 51.802C90.0207 51.0022 90.6143 50.1484 91.3618 49.2405L91.4937 49.1108C91.5596 49.046 91.6366 48.9595 91.7245 48.8514C91.8344 48.7433 91.9554 48.6244 92.0873 48.4948L89.9107 48.3975L90.1416 48.1705L90.1086 48.2678C90.3065 48.0084 90.4054 47.7382 90.4054 47.4572L90.4384 47.3923L90.4054 41.7506C90.4054 41.729 90.3944 41.7182 90.3724 41.7182C90.3724 41.6966 90.3724 41.675 90.3724 41.6534V41.6858C90.3504 41.6642 90.3394 41.6101 90.3394 41.5237L90.2405 41.2967V41.2643C90.1965 41.2211 90.1746 41.1562 90.1746 41.0697V40.7779C90.3944 40.9725 90.6253 41.0697 90.8671 41.0697C91.021 41.1562 91.4058 41.1994 92.0213 41.1994C92.0433 41.2211 92.1532 41.2319 92.3511 41.2319C93.3624 41.2319 94.3408 40.9833 95.2862 40.4861C95.3741 40.4429 95.8138 40.0322 96.6053 39.254C97.3088 40.0538 97.9684 40.4537 98.584 40.4537C99.2216 40.4537 99.7382 40.1403 100.134 39.5134L101.024 39.4486L101.156 39.6107ZM96.9021 51.3805V47.2951L96.8361 47.2302H95.1543L93.4394 48.9163C93.2855 49.0676 93.1096 49.2621 92.9117 49.4999C92.7139 49.716 92.472 49.9646 92.1862 50.2456C92.4501 50.2024 92.6809 50.17 92.8788 50.1484C93.0766 50.1051 93.2305 50.0835 93.3405 50.0835C94.4837 50.0835 95.462 50.5807 96.2755 51.575L96.4074 51.5101L96.5064 51.4777C96.5503 51.4777 96.6273 51.4561 96.7372 51.4129H96.8691L96.9021 51.3805ZM97.9904 42.7882C97.6166 42.9395 97.2209 43.0152 96.8032 43.0152C96.1656 43.0152 95.4401 42.7017 94.6266 42.0749C94.5606 42.0965 94.5167 42.1181 94.4947 42.1397H94.3628C94.2309 42.2046 94.1099 42.237 94 42.237V46.3224H94.3628C94.5387 46.2143 94.7805 46.0089 95.0883 45.7063C95.4181 45.4037 95.8358 45.0038 96.3415 44.5066C97.089 43.7285 97.6386 43.1557 97.9904 42.7882Z"
    fill="white"
  />
</svg>
