<svg xmlns="http://www.w3.org/2000/svg" xmlns:xlink="http://www.w3.org/1999/xlink" width="179" zoomAndPan="magnify" viewBox="0 0 134.25 44.249999" height="59" preserveAspectRatio="xMidYMid meet" version="1.0"><defs><g/><clipPath id="id1"><path d="M 55.828125 34.34375 L 62 34.34375 L 62 39.324219 L 55.828125 39.324219 Z M 55.828125 34.34375 " clip-rule="nonzero"/></clipPath><clipPath id="id2"><path d="M 61.296875 38.269531 L 60.40625 39.257812 C 60.386719 39.277344 60.363281 39.292969 60.335938 39.304688 C 60.308594 39.316406 60.28125 39.324219 60.253906 39.324219 L 56.019531 39.324219 C 56 39.324219 55.980469 39.316406 55.964844 39.308594 C 55.945312 39.296875 55.933594 39.277344 55.925781 39.261719 C 55.917969 39.242188 55.914062 39.21875 55.917969 39.199219 C 55.921875 39.179688 55.929688 39.160156 55.945312 39.144531 L 56.835938 38.160156 C 56.855469 38.136719 56.878906 38.121094 56.90625 38.109375 C 56.929688 38.097656 56.960938 38.089844 56.988281 38.089844 L 61.222656 38.089844 C 61.242188 38.089844 61.261719 38.097656 61.277344 38.109375 C 61.296875 38.117188 61.308594 38.136719 61.316406 38.152344 C 61.324219 38.171875 61.328125 38.195312 61.324219 38.214844 C 61.320312 38.234375 61.3125 38.253906 61.296875 38.269531 Z M 60.40625 36.285156 C 60.386719 36.261719 60.363281 36.246094 60.335938 36.234375 C 60.308594 36.222656 60.28125 36.21875 60.253906 36.21875 L 56.019531 36.21875 C 56 36.21875 55.980469 36.222656 55.964844 36.234375 C 55.945312 36.246094 55.933594 36.261719 55.925781 36.28125 C 55.917969 36.300781 55.914062 36.320312 55.917969 36.339844 C 55.921875 36.363281 55.929688 36.382812 55.945312 36.398438 L 56.835938 37.382812 C 56.855469 37.402344 56.878906 37.421875 56.90625 37.433594 C 56.929688 37.445312 56.960938 37.449219 56.988281 37.449219 L 61.222656 37.449219 C 61.242188 37.449219 61.261719 37.445312 61.277344 37.433594 C 61.292969 37.421875 61.308594 37.40625 61.316406 37.386719 C 61.324219 37.367188 61.324219 37.347656 61.324219 37.324219 C 61.320312 37.304688 61.308594 37.285156 61.296875 37.269531 Z M 56.019531 35.578125 L 60.253906 35.578125 C 60.28125 35.578125 60.308594 35.570312 60.335938 35.558594 C 60.363281 35.546875 60.386719 35.53125 60.40625 35.507812 L 61.296875 34.523438 C 61.3125 34.507812 61.320312 34.488281 61.324219 34.46875 C 61.328125 34.449219 61.324219 34.425781 61.316406 34.40625 C 61.308594 34.386719 61.296875 34.371094 61.277344 34.359375 C 61.261719 34.347656 61.242188 34.34375 61.222656 34.34375 L 56.988281 34.34375 C 56.960938 34.34375 56.929688 34.351562 56.90625 34.363281 C 56.878906 34.375 56.855469 34.390625 56.835938 34.410156 L 55.945312 35.398438 C 55.929688 35.414062 55.921875 35.429688 55.917969 35.453125 C 55.914062 35.472656 55.917969 35.492188 55.925781 35.511719 C 55.933594 35.53125 55.945312 35.546875 55.964844 35.558594 C 55.980469 35.570312 56 35.578125 56.019531 35.578125 Z M 56.019531 35.578125 " clip-rule="nonzero"/></clipPath><linearGradient x1="7.941217" gradientTransform="matrix(0.050396, 0, 0, 0.0518803, 55.828621, 34.343628)" y1="101.524222" x2="102.898084" gradientUnits="userSpaceOnUse" y2="-5.528652" id="id3"><stop stop-opacity="1" stop-color="rgb(59.999084%, 27.099609%, 100%)" offset="0"/><stop stop-opacity="1" stop-color="rgb(59.999084%, 27.099609%, 100%)" offset="0.0625"/><stop stop-opacity="1" stop-color="rgb(59.999084%, 27.099609%, 100%)" offset="0.09375"/><stop stop-opacity="1" stop-color="rgb(59.912109%, 27.160645%, 99.942017%)" offset="0.109375"/><stop stop-opacity="1" stop-color="rgb(59.690857%, 27.320862%, 99.795532%)" offset="0.117188"/><stop stop-opacity="1" stop-color="rgb(59.41925%, 27.516174%, 99.615479%)" offset="0.125"/><stop stop-opacity="1" stop-color="rgb(59.147644%, 27.711487%, 99.435425%)" offset="0.132812"/><stop stop-opacity="1" stop-color="rgb(58.876038%, 27.906799%, 99.255371%)" offset="0.140625"/><stop stop-opacity="1" stop-color="rgb(58.602905%, 28.102112%, 99.075317%)" offset="0.148438"/><stop stop-opacity="1" stop-color="rgb(58.331299%, 28.297424%, 98.895264%)" offset="0.15625"/><stop stop-opacity="1" stop-color="rgb(58.059692%, 28.492737%, 98.71521%)" offset="0.164063"/><stop stop-opacity="1" stop-color="rgb(57.788086%, 28.688049%, 98.535156%)" offset="0.171875"/><stop stop-opacity="1" stop-color="rgb(57.516479%, 28.883362%, 98.355103%)" offset="0.179688"/><stop stop-opacity="1" stop-color="rgb(57.244873%, 29.078674%, 98.175049%)" offset="0.1875"/><stop stop-opacity="1" stop-color="rgb(56.973267%, 29.272461%, 97.994995%)" offset="0.195312"/><stop stop-opacity="1" stop-color="rgb(56.700134%, 29.467773%, 97.816467%)" offset="0.203125"/><stop stop-opacity="1" stop-color="rgb(56.428528%, 29.663086%, 97.636414%)" offset="0.210938"/><stop stop-opacity="1" stop-color="rgb(56.156921%, 29.858398%, 97.45636%)" offset="0.21875"/><stop stop-opacity="1" stop-color="rgb(55.885315%, 30.053711%, 97.276306%)" offset="0.226563"/><stop stop-opacity="1" stop-color="rgb(55.613708%, 30.249023%, 97.096252%)" offset="0.234375"/><stop stop-opacity="1" stop-color="rgb(55.342102%, 30.444336%, 96.916199%)" offset="0.242188"/><stop stop-opacity="1" stop-color="rgb(55.070496%, 30.639648%, 96.736145%)" offset="0.25"/><stop stop-opacity="1" stop-color="rgb(54.797363%, 30.834961%, 96.556091%)" offset="0.257812"/><stop stop-opacity="1" stop-color="rgb(54.525757%, 31.030273%, 96.376038%)" offset="0.265625"/><stop stop-opacity="1" stop-color="rgb(54.25415%, 31.225586%, 96.195984%)" offset="0.273438"/><stop stop-opacity="1" stop-color="rgb(53.982544%, 31.420898%, 96.01593%)" offset="0.28125"/><stop stop-opacity="1" stop-color="rgb(53.710938%, 31.616211%, 95.835876%)" offset="0.289063"/><stop stop-opacity="1" stop-color="rgb(53.439331%, 31.811523%, 95.655823%)" offset="0.296875"/><stop stop-opacity="1" stop-color="rgb(53.167725%, 32.006836%, 95.477295%)" offset="0.304688"/><stop stop-opacity="1" stop-color="rgb(52.748108%, 32.443237%, 95.214844%)" offset="0.308594"/><stop stop-opacity="1" stop-color="rgb(52.46582%, 32.783508%, 95.043945%)" offset="0.3125"/><stop stop-opacity="1" stop-color="rgb(52.044678%, 33.351135%, 94.795227%)" offset="0.316406"/><stop stop-opacity="1" stop-color="rgb(51.623535%, 33.920288%, 94.546509%)" offset="0.320313"/><stop stop-opacity="1" stop-color="rgb(51.202393%, 34.487915%, 94.297791%)" offset="0.324219"/><stop stop-opacity="1" stop-color="rgb(50.78125%, 35.057068%, 94.050598%)" offset="0.328125"/><stop stop-opacity="1" stop-color="rgb(50.360107%, 35.626221%, 93.80188%)" offset="0.332031"/><stop stop-opacity="1" stop-color="rgb(49.938965%, 36.195374%, 93.553162%)" offset="0.335938"/><stop stop-opacity="1" stop-color="rgb(49.517822%, 36.763%, 93.304443%)" offset="0.339844"/><stop stop-opacity="1" stop-color="rgb(49.09668%, 37.332153%, 93.055725%)" offset="0.34375"/><stop stop-opacity="1" stop-color="rgb(48.675537%, 37.89978%, 92.807007%)" offset="0.347656"/><stop stop-opacity="1" stop-color="rgb(48.25592%, 38.468933%, 92.559814%)" offset="0.351563"/><stop stop-opacity="1" stop-color="rgb(47.834778%, 39.03656%, 92.311096%)" offset="0.355469"/><stop stop-opacity="1" stop-color="rgb(47.413635%, 39.605713%, 92.062378%)" offset="0.359375"/><stop stop-opacity="1" stop-color="rgb(46.992493%, 40.17334%, 91.81366%)" offset="0.363281"/><stop stop-opacity="1" stop-color="rgb(46.57135%, 40.742493%, 91.564941%)" offset="0.367188"/><stop stop-opacity="1" stop-color="rgb(46.150208%, 41.31012%, 91.316223%)" offset="0.371094"/><stop stop-opacity="1" stop-color="rgb(45.729065%, 41.879272%, 91.069031%)" offset="0.375"/><stop stop-opacity="1" stop-color="rgb(45.307922%, 42.448425%, 90.820312%)" offset="0.378906"/><stop stop-opacity="1" stop-color="rgb(44.88678%, 43.017578%, 90.571594%)" offset="0.382813"/><stop stop-opacity="1" stop-color="rgb(44.465637%, 43.585205%, 90.322876%)" offset="0.386719"/><stop stop-opacity="1" stop-color="rgb(44.044495%, 44.154358%, 90.074158%)" offset="0.390625"/><stop stop-opacity="1" stop-color="rgb(43.623352%, 44.721985%, 89.825439%)" offset="0.394531"/><stop stop-opacity="1" stop-color="rgb(43.202209%, 45.291138%, 89.578247%)" offset="0.398438"/><stop stop-opacity="1" stop-color="rgb(42.781067%, 45.858765%, 89.329529%)" offset="0.402344"/><stop stop-opacity="1" stop-color="rgb(42.359924%, 46.427917%, 89.080811%)" offset="0.40625"/><stop stop-opacity="1" stop-color="rgb(41.938782%, 46.995544%, 88.832092%)" offset="0.410156"/><stop stop-opacity="1" stop-color="rgb(41.517639%, 47.564697%, 88.583374%)" offset="0.414063"/><stop stop-opacity="1" stop-color="rgb(41.096497%, 48.132324%, 88.334656%)" offset="0.417969"/><stop stop-opacity="1" stop-color="rgb(40.675354%, 48.701477%, 88.087463%)" offset="0.421875"/><stop stop-opacity="1" stop-color="rgb(40.254211%, 49.27063%, 87.838745%)" offset="0.425781"/><stop stop-opacity="1" stop-color="rgb(39.833069%, 49.839783%, 87.590027%)" offset="0.429688"/><stop stop-opacity="1" stop-color="rgb(39.411926%, 50.40741%, 87.341309%)" offset="0.433594"/><stop stop-opacity="1" stop-color="rgb(38.990784%, 50.976562%, 87.09259%)" offset="0.4375"/><stop stop-opacity="1" stop-color="rgb(38.569641%, 51.544189%, 86.843872%)" offset="0.441406"/><stop stop-opacity="1" stop-color="rgb(38.148499%, 52.113342%, 86.59668%)" offset="0.445313"/><stop stop-opacity="1" stop-color="rgb(37.727356%, 52.680969%, 86.347961%)" offset="0.449219"/><stop stop-opacity="1" stop-color="rgb(37.306213%, 53.250122%, 86.099243%)" offset="0.453125"/><stop stop-opacity="1" stop-color="rgb(36.885071%, 53.817749%, 85.850525%)" offset="0.457031"/><stop stop-opacity="1" stop-color="rgb(36.463928%, 54.386902%, 85.601807%)" offset="0.460938"/><stop stop-opacity="1" stop-color="rgb(36.042786%, 54.954529%, 85.353088%)" offset="0.464844"/><stop stop-opacity="1" stop-color="rgb(35.621643%, 55.523682%, 85.105896%)" offset="0.46875"/><stop stop-opacity="1" stop-color="rgb(35.2005%, 56.092834%, 84.857178%)" offset="0.472656"/><stop stop-opacity="1" stop-color="rgb(34.779358%, 56.661987%, 84.608459%)" offset="0.476563"/><stop stop-opacity="1" stop-color="rgb(34.358215%, 57.229614%, 84.359741%)" offset="0.480469"/><stop stop-opacity="1" stop-color="rgb(33.937073%, 57.798767%, 84.111023%)" offset="0.484375"/><stop stop-opacity="1" stop-color="rgb(33.51593%, 58.366394%, 83.862305%)" offset="0.488281"/><stop stop-opacity="1" stop-color="rgb(33.094788%, 58.935547%, 83.615112%)" offset="0.492188"/><stop stop-opacity="1" stop-color="rgb(32.783508%, 59.436035%, 83.418274%)" offset="0.496094"/><stop stop-opacity="1" stop-color="rgb(32.472229%, 59.936523%, 83.221436%)" offset="0.5"/><stop stop-opacity="1" stop-color="rgb(32.194519%, 60.415649%, 83.039856%)" offset="0.503906"/><stop stop-opacity="1" stop-color="rgb(31.916809%, 60.896301%, 82.858276%)" offset="0.507813"/><stop stop-opacity="1" stop-color="rgb(31.637573%, 61.376953%, 82.676697%)" offset="0.511719"/><stop stop-opacity="1" stop-color="rgb(31.359863%, 61.857605%, 82.496643%)" offset="0.515625"/><stop stop-opacity="1" stop-color="rgb(31.082153%, 62.336731%, 82.315063%)" offset="0.519531"/><stop stop-opacity="1" stop-color="rgb(30.804443%, 62.817383%, 82.13501%)" offset="0.523438"/><stop stop-opacity="1" stop-color="rgb(30.526733%, 63.296509%, 81.95343%)" offset="0.527344"/><stop stop-opacity="1" stop-color="rgb(30.249023%, 63.777161%, 81.771851%)" offset="0.53125"/><stop stop-opacity="1" stop-color="rgb(29.971313%, 64.256287%, 81.590271%)" offset="0.535156"/><stop stop-opacity="1" stop-color="rgb(29.693604%, 64.736938%, 81.410217%)" offset="0.539063"/><stop stop-opacity="1" stop-color="rgb(29.414368%, 65.21759%, 81.228638%)" offset="0.542969"/><stop stop-opacity="1" stop-color="rgb(29.136658%, 65.698242%, 81.048584%)" offset="0.546875"/><stop stop-opacity="1" stop-color="rgb(28.858948%, 66.177368%, 80.867004%)" offset="0.550781"/><stop stop-opacity="1" stop-color="rgb(28.581238%, 66.65802%, 80.685425%)" offset="0.554688"/><stop stop-opacity="1" stop-color="rgb(28.303528%, 67.137146%, 80.503845%)" offset="0.558594"/><stop stop-opacity="1" stop-color="rgb(28.025818%, 67.617798%, 80.323792%)" offset="0.5625"/><stop stop-opacity="1" stop-color="rgb(27.746582%, 68.096924%, 80.142212%)" offset="0.566406"/><stop stop-opacity="1" stop-color="rgb(27.468872%, 68.577576%, 79.962158%)" offset="0.570313"/><stop stop-opacity="1" stop-color="rgb(27.191162%, 69.058228%, 79.780579%)" offset="0.574219"/><stop stop-opacity="1" stop-color="rgb(26.913452%, 69.538879%, 79.598999%)" offset="0.578125"/><stop stop-opacity="1" stop-color="rgb(26.635742%, 70.018005%, 79.417419%)" offset="0.582031"/><stop stop-opacity="1" stop-color="rgb(26.358032%, 70.498657%, 79.237366%)" offset="0.585938"/><stop stop-opacity="1" stop-color="rgb(25.994873%, 71.089172%, 79.006958%)" offset="0.589844"/><stop stop-opacity="1" stop-color="rgb(25.63324%, 71.679688%, 78.778076%)" offset="0.59375"/><stop stop-opacity="1" stop-color="rgb(25.260925%, 72.28241%, 78.543091%)" offset="0.597656"/><stop stop-opacity="1" stop-color="rgb(24.890137%, 72.886658%, 78.308105%)" offset="0.601562"/><stop stop-opacity="1" stop-color="rgb(24.517822%, 73.48938%, 78.07312%)" offset="0.605469"/><stop stop-opacity="1" stop-color="rgb(24.145508%, 74.093628%, 77.838135%)" offset="0.609375"/><stop stop-opacity="1" stop-color="rgb(23.773193%, 74.69635%, 77.603149%)" offset="0.613281"/><stop stop-opacity="1" stop-color="rgb(23.400879%, 75.300598%, 77.368164%)" offset="0.617188"/><stop stop-opacity="1" stop-color="rgb(23.028564%, 75.904846%, 77.131653%)" offset="0.621094"/><stop stop-opacity="1" stop-color="rgb(22.657776%, 76.509094%, 76.896667%)" offset="0.625"/><stop stop-opacity="1" stop-color="rgb(22.285461%, 77.111816%, 76.661682%)" offset="0.628906"/><stop stop-opacity="1" stop-color="rgb(21.913147%, 77.716064%, 76.426697%)" offset="0.632812"/><stop stop-opacity="1" stop-color="rgb(21.540833%, 78.318787%, 76.191711%)" offset="0.636719"/><stop stop-opacity="1" stop-color="rgb(21.170044%, 78.923035%, 75.956726%)" offset="0.640625"/><stop stop-opacity="1" stop-color="rgb(20.797729%, 79.525757%, 75.721741%)" offset="0.644531"/><stop stop-opacity="1" stop-color="rgb(20.425415%, 80.130005%, 75.486755%)" offset="0.648438"/><stop stop-opacity="1" stop-color="rgb(20.053101%, 80.732727%, 75.25177%)" offset="0.652344"/><stop stop-opacity="1" stop-color="rgb(19.682312%, 81.336975%, 75.016785%)" offset="0.65625"/><stop stop-opacity="1" stop-color="rgb(19.309998%, 81.939697%, 74.781799%)" offset="0.660156"/><stop stop-opacity="1" stop-color="rgb(18.937683%, 82.543945%, 74.546814%)" offset="0.664062"/><stop stop-opacity="1" stop-color="rgb(18.565369%, 83.148193%, 74.310303%)" offset="0.667969"/><stop stop-opacity="1" stop-color="rgb(18.193054%, 83.752441%, 74.075317%)" offset="0.671875"/><stop stop-opacity="1" stop-color="rgb(17.82074%, 84.355164%, 73.840332%)" offset="0.675781"/><stop stop-opacity="1" stop-color="rgb(17.449951%, 84.959412%, 73.605347%)" offset="0.679687"/><stop stop-opacity="1" stop-color="rgb(17.077637%, 85.562134%, 73.370361%)" offset="0.683594"/><stop stop-opacity="1" stop-color="rgb(16.705322%, 86.166382%, 73.135376%)" offset="0.6875"/><stop stop-opacity="1" stop-color="rgb(16.333008%, 86.769104%, 72.900391%)" offset="0.691406"/><stop stop-opacity="1" stop-color="rgb(15.962219%, 87.373352%, 72.665405%)" offset="0.695312"/><stop stop-opacity="1" stop-color="rgb(15.765381%, 87.701416%, 72.454834%)" offset="0.699219"/><stop stop-opacity="1" stop-color="rgb(15.570068%, 88.031006%, 72.244263%)" offset="0.703125"/><stop stop-opacity="1" stop-color="rgb(15.470886%, 88.209534%, 72.047424%)" offset="0.707031"/><stop stop-opacity="1" stop-color="rgb(15.371704%, 88.388062%, 71.850586%)" offset="0.710937"/><stop stop-opacity="1" stop-color="rgb(15.272522%, 88.566589%, 71.652222%)" offset="0.714844"/><stop stop-opacity="1" stop-color="rgb(15.17334%, 88.745117%, 71.455383%)" offset="0.71875"/><stop stop-opacity="1" stop-color="rgb(15.074158%, 88.923645%, 71.258545%)" offset="0.722656"/><stop stop-opacity="1" stop-color="rgb(14.974976%, 89.102173%, 71.061707%)" offset="0.726562"/><stop stop-opacity="1" stop-color="rgb(14.874268%, 89.280701%, 70.864868%)" offset="0.730469"/><stop stop-opacity="1" stop-color="rgb(14.775085%, 89.459229%, 70.66803%)" offset="0.734375"/><stop stop-opacity="1" stop-color="rgb(14.675903%, 89.637756%, 70.469666%)" offset="0.738281"/><stop stop-opacity="1" stop-color="rgb(14.576721%, 89.816284%, 70.272827%)" offset="0.742187"/><stop stop-opacity="1" stop-color="rgb(14.477539%, 89.994812%, 70.075989%)" offset="0.746094"/><stop stop-opacity="1" stop-color="rgb(14.378357%, 90.17334%, 69.87915%)" offset="0.75"/><stop stop-opacity="1" stop-color="rgb(14.277649%, 90.351868%, 69.682312%)" offset="0.753906"/><stop stop-opacity="1" stop-color="rgb(14.178467%, 90.530396%, 69.485474%)" offset="0.757813"/><stop stop-opacity="1" stop-color="rgb(14.079285%, 90.708923%, 69.287109%)" offset="0.761719"/><stop stop-opacity="1" stop-color="rgb(13.980103%, 90.887451%, 69.090271%)" offset="0.765625"/><stop stop-opacity="1" stop-color="rgb(13.88092%, 91.065979%, 68.893433%)" offset="0.769531"/><stop stop-opacity="1" stop-color="rgb(13.781738%, 91.244507%, 68.696594%)" offset="0.773438"/><stop stop-opacity="1" stop-color="rgb(13.682556%, 91.423035%, 68.499756%)" offset="0.777344"/><stop stop-opacity="1" stop-color="rgb(13.583374%, 91.601562%, 68.302917%)" offset="0.78125"/><stop stop-opacity="1" stop-color="rgb(13.482666%, 91.78009%, 68.104553%)" offset="0.785156"/><stop stop-opacity="1" stop-color="rgb(13.383484%, 91.958618%, 67.907715%)" offset="0.789063"/><stop stop-opacity="1" stop-color="rgb(13.284302%, 92.137146%, 67.710876%)" offset="0.792969"/><stop stop-opacity="1" stop-color="rgb(13.18512%, 92.315674%, 67.514038%)" offset="0.796875"/><stop stop-opacity="1" stop-color="rgb(13.085938%, 92.494202%, 67.3172%)" offset="0.800781"/><stop stop-opacity="1" stop-color="rgb(12.986755%, 92.672729%, 67.120361%)" offset="0.804688"/><stop stop-opacity="1" stop-color="rgb(12.887573%, 92.851257%, 66.921997%)" offset="0.808594"/><stop stop-opacity="1" stop-color="rgb(12.788391%, 93.029785%, 66.725159%)" offset="0.8125"/><stop stop-opacity="1" stop-color="rgb(12.687683%, 93.208313%, 66.52832%)" offset="0.816406"/><stop stop-opacity="1" stop-color="rgb(12.588501%, 93.386841%, 66.331482%)" offset="0.820313"/><stop stop-opacity="1" stop-color="rgb(12.489319%, 93.565369%, 66.134644%)" offset="0.824219"/><stop stop-opacity="1" stop-color="rgb(12.390137%, 93.743896%, 65.937805%)" offset="0.828125"/><stop stop-opacity="1" stop-color="rgb(12.290955%, 93.922424%, 65.739441%)" offset="0.832031"/><stop stop-opacity="1" stop-color="rgb(12.191772%, 94.100952%, 65.542603%)" offset="0.835938"/><stop stop-opacity="1" stop-color="rgb(12.09259%, 94.27948%, 65.345764%)" offset="0.839844"/><stop stop-opacity="1" stop-color="rgb(11.993408%, 94.458008%, 65.148926%)" offset="0.84375"/><stop stop-opacity="1" stop-color="rgb(11.8927%, 94.636536%, 64.952087%)" offset="0.847656"/><stop stop-opacity="1" stop-color="rgb(11.793518%, 94.815063%, 64.755249%)" offset="0.851562"/><stop stop-opacity="1" stop-color="rgb(11.694336%, 94.993591%, 64.556885%)" offset="0.855469"/><stop stop-opacity="1" stop-color="rgb(11.595154%, 95.172119%, 64.360046%)" offset="0.859375"/><stop stop-opacity="1" stop-color="rgb(11.495972%, 95.350647%, 64.163208%)" offset="0.863281"/><stop stop-opacity="1" stop-color="rgb(11.39679%, 95.529175%, 63.96637%)" offset="0.867188"/><stop stop-opacity="1" stop-color="rgb(11.296082%, 95.707703%, 63.769531%)" offset="0.871094"/><stop stop-opacity="1" stop-color="rgb(11.196899%, 95.88623%, 63.572693%)" offset="0.875"/><stop stop-opacity="1" stop-color="rgb(11.097717%, 96.064758%, 63.374329%)" offset="0.878906"/><stop stop-opacity="1" stop-color="rgb(10.998535%, 96.243286%, 63.17749%)" offset="0.882812"/><stop stop-opacity="1" stop-color="rgb(10.899353%, 96.421814%, 62.980652%)" offset="0.886719"/><stop stop-opacity="1" stop-color="rgb(10.800171%, 96.600342%, 62.783813%)" offset="0.890625"/><stop stop-opacity="1" stop-color="rgb(10.700989%, 96.77887%, 62.586975%)" offset="0.894531"/><stop stop-opacity="1" stop-color="rgb(10.601807%, 96.958923%, 62.390137%)" offset="0.898438"/><stop stop-opacity="1" stop-color="rgb(10.501099%, 97.137451%, 62.191772%)" offset="0.902344"/><stop stop-opacity="1" stop-color="rgb(10.401917%, 97.315979%, 61.994934%)" offset="0.90625"/><stop stop-opacity="1" stop-color="rgb(10.302734%, 97.494507%, 61.798096%)" offset="0.910156"/><stop stop-opacity="1" stop-color="rgb(10.203552%, 97.673035%, 61.601257%)" offset="0.914062"/><stop stop-opacity="1" stop-color="rgb(10.10437%, 97.851562%, 61.404419%)" offset="0.917969"/><stop stop-opacity="1" stop-color="rgb(10.005188%, 98.03009%, 61.207581%)" offset="0.921875"/><stop stop-opacity="1" stop-color="rgb(9.906006%, 98.208618%, 61.010742%)" offset="0.925781"/><stop stop-opacity="1" stop-color="rgb(9.806824%, 98.387146%, 60.813904%)" offset="0.929687"/><stop stop-opacity="1" stop-color="rgb(9.802246%, 98.39325%, 60.806274%)" offset="0.9375"/><stop stop-opacity="1" stop-color="rgb(9.799194%, 98.399353%, 60.798645%)" offset="1"/></linearGradient><clipPath id="id4"><path d="M 63 34.34375 L 68 34.34375 L 68 39 L 63 39 Z M 63 34.34375 " clip-rule="nonzero"/></clipPath><clipPath id="id5"><path d="M 67 34.34375 L 72 34.34375 L 72 39 L 67 39 Z M 67 34.34375 " clip-rule="nonzero"/></clipPath><clipPath id="id6"><path d="M 75 34.34375 L 80 34.34375 L 80 39 L 75 39 Z M 75 34.34375 " clip-rule="nonzero"/></clipPath><clipPath id="id7"><path d="M 84 34.34375 L 88.382812 34.34375 L 88.382812 39 L 84 39 Z M 84 34.34375 " clip-rule="nonzero"/></clipPath><clipPath id="id8"><path d="M 80 34.34375 L 84 34.34375 L 84 39 L 80 39 Z M 80 34.34375 " clip-rule="nonzero"/></clipPath><clipPath id="id9"><path d="M 72 34.34375 L 76 34.34375 L 76 39 L 72 39 Z M 72 34.34375 " clip-rule="nonzero"/></clipPath><clipPath id="id10"><path d="M 49.816406 34.34375 L 50 34.34375 L 50 39 L 49.816406 39 Z M 49.816406 34.34375 " clip-rule="nonzero"/></clipPath><clipPath id="id11"><path d="M 54 34.34375 L 54.34375 34.34375 L 54.34375 39 L 54 39 Z M 54 34.34375 " clip-rule="nonzero"/></clipPath><clipPath id="id12"><path d="M 50 34.34375 L 54.34375 34.34375 L 54.34375 39 L 50 39 Z M 50 34.34375 " clip-rule="nonzero"/></clipPath><clipPath id="id13"><path d="M 45.289062 34.34375 L 46 34.34375 L 46 39 L 45.289062 39 Z M 45.289062 34.34375 " clip-rule="nonzero"/></clipPath><clipPath id="id14"><path d="M 45.289062 34.34375 L 49.816406 34.34375 L 49.816406 39 L 45.289062 39 Z M 45.289062 34.34375 " clip-rule="nonzero"/></clipPath></defs><g fill="#ffffff" fill-opacity="1"><g transform="translate(12.78047, 26.549998)"><g><path d="M 10.0625 -10.75 C 9.820312 -10.539062 9.5625 -10.34375 9.28125 -10.15625 C 9 -9.96875 8.707031 -9.804688 8.40625 -9.671875 C 8.101562 -9.535156 7.789062 -9.425781 7.46875 -9.34375 C 7.144531 -9.257812 6.816406 -9.21875 6.484375 -9.21875 C 6.378906 -9.21875 6.273438 -9.21875 6.171875 -9.21875 C 6.078125 -9.21875 5.984375 -9.222656 5.890625 -9.234375 C 5.859375 -8.941406 5.84375 -8.640625 5.84375 -8.328125 C 5.84375 -7.492188 5.847656 -6.65625 5.859375 -5.8125 C 5.867188 -4.96875 5.875 -4.066406 5.875 -3.109375 C 5.875 -2.597656 5.960938 -2.101562 6.140625 -1.625 C 6.328125 -1.15625 6.59375 -0.8125 6.9375 -0.59375 C 6.519531 -0.394531 6.171875 -0.1875 5.890625 0.03125 C 5.609375 0.257812 5.359375 0.578125 5.140625 0.984375 C 4.972656 0.585938 4.710938 0.265625 4.359375 0.015625 C 4.003906 -0.222656 3.609375 -0.425781 3.171875 -0.59375 C 3.367188 -0.875 3.515625 -1.242188 3.609375 -1.703125 C 3.710938 -2.160156 3.765625 -2.601562 3.765625 -3.03125 C 3.765625 -3.457031 3.765625 -3.832031 3.765625 -4.15625 C 3.765625 -4.488281 3.765625 -4.796875 3.765625 -5.078125 C 3.773438 -5.367188 3.78125 -5.644531 3.78125 -5.90625 C 3.789062 -6.175781 3.796875 -6.460938 3.796875 -6.765625 C 3.804688 -7.078125 3.8125 -7.410156 3.8125 -7.765625 C 3.8125 -8.128906 3.8125 -8.5625 3.8125 -9.0625 C 3.8125 -9.132812 3.8125 -9.203125 3.8125 -9.265625 C 3.8125 -9.335938 3.800781 -9.414062 3.78125 -9.5 C 3.125 -9.613281 2.503906 -9.734375 1.921875 -9.859375 C 1.335938 -9.984375 0.804688 -10.046875 0.328125 -10.046875 C 0.109375 -10.046875 -0.125 -10.019531 -0.375 -9.96875 L -0.390625 -10.015625 C 0.140625 -10.171875 0.578125 -10.363281 0.921875 -10.59375 C 1.265625 -10.820312 1.609375 -11.09375 1.953125 -11.40625 C 2.460938 -11.257812 2.894531 -11.140625 3.25 -11.046875 C 3.613281 -10.960938 3.945312 -10.894531 4.25 -10.84375 C 4.5625 -10.789062 4.867188 -10.753906 5.171875 -10.734375 C 5.472656 -10.722656 5.8125 -10.71875 6.1875 -10.71875 C 6.09375 -10.882812 6.023438 -11.035156 5.984375 -11.171875 C 5.941406 -11.304688 5.921875 -11.445312 5.921875 -11.59375 C 6.242188 -11.382812 6.546875 -11.222656 6.828125 -11.109375 C 7.109375 -10.992188 7.375 -10.910156 7.625 -10.859375 C 7.882812 -10.804688 8.140625 -10.773438 8.390625 -10.765625 C 8.648438 -10.753906 8.914062 -10.75 9.1875 -10.75 C 9.34375 -10.75 9.488281 -10.753906 9.625 -10.765625 C 9.757812 -10.773438 9.894531 -10.789062 10.03125 -10.8125 Z M 10.0625 -10.75 "/></g></g></g><g fill="#ffffff" fill-opacity="1"><g transform="translate(22.55213, 26.549998)"><g><path d="M 4.578125 1.375 C 4.628906 1.175781 4.679688 0.929688 4.734375 0.640625 C 4.785156 0.347656 4.820312 0.0625 4.84375 -0.21875 C 4.875 -0.507812 4.898438 -0.78125 4.921875 -1.03125 C 4.941406 -1.28125 4.953125 -1.457031 4.953125 -1.5625 C 4.953125 -2.125 4.945312 -2.679688 4.9375 -3.234375 C 4.9375 -3.796875 4.9375 -4.359375 4.9375 -4.921875 L 4.75 -5.140625 L 2.9375 -4.328125 L 2.9375 -1.296875 C 2.9375 -0.679688 3.066406 -0.320312 3.328125 -0.21875 L 3.328125 0 L 0.625 0 L 0.625 -0.21875 C 0.738281 -0.269531 0.832031 -0.367188 0.90625 -0.515625 C 0.976562 -0.671875 1.015625 -0.890625 1.015625 -1.171875 L 1.015625 -8.921875 C 1.015625 -9.171875 1.007812 -9.390625 1 -9.578125 C 0.988281 -9.773438 0.96875 -9.957031 0.9375 -10.125 C 0.90625 -10.300781 0.859375 -10.46875 0.796875 -10.625 C 0.734375 -10.78125 0.660156 -10.941406 0.578125 -11.109375 C 0.773438 -11.035156 1.003906 -11 1.265625 -11 C 1.585938 -11 1.925781 -11.050781 2.28125 -11.15625 C 2.644531 -11.269531 3.035156 -11.425781 3.453125 -11.625 C 3.253906 -11.382812 3.117188 -11.066406 3.046875 -10.671875 C 2.972656 -10.285156 2.9375 -9.835938 2.9375 -9.328125 L 2.9375 -5.34375 C 3.351562 -5.613281 3.726562 -5.882812 4.0625 -6.15625 C 4.40625 -6.4375 4.753906 -6.765625 5.109375 -7.140625 C 5.273438 -6.984375 5.425781 -6.84375 5.5625 -6.71875 C 5.695312 -6.59375 5.832031 -6.476562 5.96875 -6.375 C 6.113281 -6.28125 6.265625 -6.1875 6.421875 -6.09375 C 6.585938 -6 6.773438 -5.90625 6.984375 -5.8125 C 6.941406 -5.675781 6.90625 -5.53125 6.875 -5.375 C 6.851562 -5.21875 6.832031 -5.019531 6.8125 -4.78125 C 6.800781 -4.550781 6.789062 -4.265625 6.78125 -3.921875 C 6.769531 -3.578125 6.765625 -3.148438 6.765625 -2.640625 C 6.765625 -2.203125 6.765625 -1.84375 6.765625 -1.5625 C 6.773438 -1.289062 6.785156 -1.066406 6.796875 -0.890625 C 6.804688 -0.710938 6.820312 -0.566406 6.84375 -0.453125 C 6.863281 -0.335938 6.882812 -0.226562 6.90625 -0.125 C 6.707031 -0.0625 6.503906 0.0234375 6.296875 0.140625 C 6.097656 0.265625 5.898438 0.398438 5.703125 0.546875 C 5.503906 0.691406 5.316406 0.84375 5.140625 1 C 4.960938 1.15625 4.800781 1.304688 4.65625 1.453125 Z M 4.578125 1.375 "/></g></g></g><g fill="#ffffff" fill-opacity="1"><g transform="translate(30.275129, 26.549998)"><g><path d="M 3.484375 0.46875 C 3.296875 0.332031 3.0625 0.203125 2.78125 0.078125 C 2.507812 -0.0351562 2.226562 -0.132812 1.9375 -0.21875 C 1.644531 -0.300781 1.363281 -0.363281 1.09375 -0.40625 C 0.820312 -0.457031 0.597656 -0.484375 0.421875 -0.484375 C 0.503906 -0.609375 0.570312 -0.785156 0.625 -1.015625 C 0.6875 -1.253906 0.734375 -1.507812 0.765625 -1.78125 C 0.804688 -2.050781 0.832031 -2.328125 0.84375 -2.609375 C 0.863281 -2.890625 0.875 -3.148438 0.875 -3.390625 C 0.875 -3.992188 0.835938 -4.492188 0.765625 -4.890625 C 0.691406 -5.285156 0.617188 -5.597656 0.546875 -5.828125 C 0.972656 -5.898438 1.359375 -6.050781 1.703125 -6.28125 C 2.054688 -6.507812 2.40625 -6.796875 2.75 -7.140625 C 3.144531 -7.054688 3.640625 -6.988281 4.234375 -6.9375 C 4.828125 -6.882812 5.410156 -6.847656 5.984375 -6.828125 C 5.953125 -6.648438 5.9375 -6.429688 5.9375 -6.171875 C 5.9375 -5.960938 5.945312 -5.738281 5.96875 -5.5 C 5.988281 -5.257812 6.015625 -5.019531 6.046875 -4.78125 C 6.078125 -4.539062 6.113281 -4.3125 6.15625 -4.09375 C 6.207031 -3.882812 6.265625 -3.703125 6.328125 -3.546875 C 5.722656 -3.492188 5.109375 -3.425781 4.484375 -3.34375 C 3.867188 -3.257812 3.269531 -3.164062 2.6875 -3.0625 C 2.675781 -2.78125 2.65625 -2.5 2.625 -2.21875 C 2.59375 -1.945312 2.566406 -1.707031 2.546875 -1.5 C 2.671875 -1.457031 2.820312 -1.414062 3 -1.375 C 3.1875 -1.332031 3.378906 -1.289062 3.578125 -1.25 C 3.785156 -1.21875 3.988281 -1.191406 4.1875 -1.171875 C 4.382812 -1.148438 4.550781 -1.132812 4.6875 -1.125 C 4.738281 -1.425781 4.859375 -1.6875 5.046875 -1.90625 C 5.242188 -2.125 5.570312 -2.300781 6.03125 -2.4375 C 6.019531 -2.3125 6.015625 -2.191406 6.015625 -2.078125 C 6.015625 -1.972656 6.015625 -1.863281 6.015625 -1.75 C 6.015625 -1.414062 6.023438 -1.148438 6.046875 -0.953125 C 6.078125 -0.765625 6.125 -0.578125 6.1875 -0.390625 C 6.007812 -0.378906 5.789062 -0.34375 5.53125 -0.28125 C 5.269531 -0.226562 5.007812 -0.160156 4.75 -0.078125 C 4.5 0.00390625 4.257812 0.09375 4.03125 0.1875 C 3.800781 0.28125 3.617188 0.375 3.484375 0.46875 Z M 2.53125 -5.8125 C 2.582031 -5.394531 2.617188 -5.03125 2.640625 -4.71875 C 2.671875 -4.40625 2.691406 -4.113281 2.703125 -3.84375 L 4.421875 -4.28125 C 4.367188 -4.476562 4.328125 -4.679688 4.296875 -4.890625 C 4.265625 -5.109375 4.25 -5.332031 4.25 -5.5625 C 4.019531 -5.5625 3.742188 -5.582031 3.421875 -5.625 C 3.109375 -5.664062 2.8125 -5.726562 2.53125 -5.8125 Z M 2.53125 -5.8125 "/></g></g></g><g fill="#ffffff" fill-opacity="1"><g transform="translate(37.069601, 26.549998)"><g/></g></g><g fill="#ffffff" fill-opacity="1"><g transform="translate(40.385774, 26.549998)"><g><path d="M 8.796875 -10.078125 C 8.816406 -9.597656 8.851562 -9.195312 8.90625 -8.875 C 8.96875 -8.5625 9.035156 -8.257812 9.109375 -7.96875 C 9.191406 -7.675781 9.285156 -7.363281 9.390625 -7.03125 C 9.503906 -6.707031 9.628906 -6.300781 9.765625 -5.8125 C 9.660156 -5.613281 9.570312 -5.363281 9.5 -5.0625 C 9.425781 -4.757812 9.363281 -4.445312 9.3125 -4.125 C 9.257812 -3.800781 9.21875 -3.484375 9.1875 -3.171875 C 9.164062 -2.859375 9.15625 -2.582031 9.15625 -2.34375 C 9.15625 -2.15625 9.160156 -1.972656 9.171875 -1.796875 C 9.191406 -1.617188 9.226562 -1.453125 9.28125 -1.296875 C 8.707031 -1.191406 8.207031 -0.945312 7.78125 -0.5625 C 7.363281 -0.1875 6.945312 0.265625 6.53125 0.796875 C 5.738281 0.453125 4.816406 0.207031 3.765625 0.0625 C 2.722656 -0.0703125 1.601562 -0.140625 0.40625 -0.140625 C 0.519531 -0.203125 0.660156 -0.3125 0.828125 -0.46875 C 0.992188 -0.632812 1.15625 -0.820312 1.3125 -1.03125 C 1.46875 -1.25 1.601562 -1.472656 1.71875 -1.703125 C 1.832031 -1.929688 1.890625 -2.144531 1.890625 -2.34375 C 1.890625 -2.539062 1.882812 -2.757812 1.875 -3 C 1.875 -3.25 1.851562 -3.5 1.8125 -3.75 C 1.78125 -4.007812 1.726562 -4.257812 1.65625 -4.5 C 1.582031 -4.75 1.484375 -4.960938 1.359375 -5.140625 C 1.460938 -5.253906 1.546875 -5.429688 1.609375 -5.671875 C 1.679688 -5.910156 1.734375 -6.175781 1.765625 -6.46875 C 1.804688 -6.757812 1.832031 -7.054688 1.84375 -7.359375 C 1.851562 -7.671875 1.859375 -7.957031 1.859375 -8.21875 C 1.859375 -8.53125 1.832031 -8.796875 1.78125 -9.015625 C 1.738281 -9.242188 1.65625 -9.453125 1.53125 -9.640625 C 1.40625 -9.835938 1.234375 -10.03125 1.015625 -10.21875 C 0.804688 -10.40625 0.539062 -10.625 0.21875 -10.875 C 0.914062 -10.875 1.539062 -10.875 2.09375 -10.875 C 2.65625 -10.882812 3.171875 -10.894531 3.640625 -10.90625 C 4.109375 -10.925781 4.550781 -10.953125 4.96875 -10.984375 C 5.382812 -11.015625 5.796875 -11.066406 6.203125 -11.140625 C 6.515625 -10.953125 6.90625 -10.757812 7.375 -10.5625 C 7.84375 -10.363281 8.316406 -10.203125 8.796875 -10.078125 Z M 7.140625 -2.125 C 7.140625 -2.34375 7.15625 -2.628906 7.1875 -2.984375 C 7.21875 -3.347656 7.257812 -3.710938 7.3125 -4.078125 C 7.363281 -4.441406 7.425781 -4.785156 7.5 -5.109375 C 7.570312 -5.441406 7.65625 -5.6875 7.75 -5.84375 C 7.675781 -6.039062 7.59375 -6.285156 7.5 -6.578125 C 7.414062 -6.878906 7.328125 -7.195312 7.234375 -7.53125 C 7.148438 -7.863281 7.070312 -8.191406 7 -8.515625 C 6.9375 -8.847656 6.890625 -9.140625 6.859375 -9.390625 C 6.703125 -9.390625 6.503906 -9.378906 6.265625 -9.359375 C 6.023438 -9.347656 5.765625 -9.328125 5.484375 -9.296875 C 5.203125 -9.265625 4.921875 -9.222656 4.640625 -9.171875 C 4.359375 -9.117188 4.097656 -9.050781 3.859375 -8.96875 C 3.835938 -8.519531 3.820312 -8.007812 3.8125 -7.4375 C 3.8125 -6.863281 3.8125 -6.253906 3.8125 -5.609375 C 3.8125 -4.972656 3.820312 -4.304688 3.84375 -3.609375 C 3.863281 -2.921875 3.90625 -2.207031 3.96875 -1.46875 C 4.0625 -1.445312 4.191406 -1.414062 4.359375 -1.375 C 4.523438 -1.332031 4.695312 -1.289062 4.875 -1.25 C 5.050781 -1.207031 5.222656 -1.171875 5.390625 -1.140625 C 5.566406 -1.109375 5.71875 -1.082031 5.84375 -1.0625 C 5.976562 -1.289062 6.160156 -1.5 6.390625 -1.6875 C 6.628906 -1.875 6.878906 -2.019531 7.140625 -2.125 Z M 7.140625 -2.125 "/></g></g></g><g fill="#ffffff" fill-opacity="1"><g transform="translate(50.732245, 26.549998)"><g><path d="M 2.953125 -4.734375 C 3.179688 -5.097656 3.390625 -5.476562 3.578125 -5.875 C 3.773438 -6.28125 3.957031 -6.710938 4.125 -7.171875 C 4.3125 -7.046875 4.578125 -6.921875 4.921875 -6.796875 C 5.265625 -6.679688 5.644531 -6.570312 6.0625 -6.46875 C 6.007812 -6.0625 5.921875 -5.6875 5.796875 -5.34375 C 5.671875 -5.007812 5.507812 -4.726562 5.3125 -4.5 L 4.328125 -5.015625 L 4.140625 -5.015625 L 2.953125 -3.328125 L 2.953125 -1.296875 C 2.953125 -0.953125 3.007812 -0.703125 3.125 -0.546875 C 3.25 -0.398438 3.472656 -0.300781 3.796875 -0.25 L 3.796875 0 L 0.640625 0 L 0.640625 -0.21875 C 0.898438 -0.320312 1.03125 -0.640625 1.03125 -1.171875 L 1.03125 -6.3125 L 0.484375 -6.546875 L 0.484375 -6.71875 C 0.828125 -6.757812 1.203125 -6.820312 1.609375 -6.90625 C 2.015625 -6.988281 2.375 -7.070312 2.6875 -7.15625 L 2.953125 -6.71875 Z M 2.953125 -4.734375 "/></g></g></g><g fill="#ffffff" fill-opacity="1"><g transform="translate(56.848747, 26.549998)"><g><path d="M 2.65625 -1.390625 C 2.875 -1.367188 3.097656 -1.351562 3.328125 -1.34375 C 3.554688 -1.332031 3.84375 -1.285156 4.1875 -1.203125 L 4.1875 -3.296875 C 3.90625 -3.179688 3.628906 -3.085938 3.359375 -3.015625 C 3.097656 -2.941406 2.875 -2.894531 2.6875 -2.875 Z M 6.453125 -6.09375 C 6.296875 -5.863281 6.195312 -5.5625 6.15625 -5.1875 C 6.113281 -4.8125 6.09375 -4.269531 6.09375 -3.5625 C 6.09375 -3.082031 6.101562 -2.703125 6.125 -2.421875 C 6.15625 -2.140625 6.191406 -1.914062 6.234375 -1.75 C 6.285156 -1.59375 6.351562 -1.484375 6.4375 -1.421875 C 6.53125 -1.359375 6.640625 -1.3125 6.765625 -1.28125 L 6.765625 -1.125 C 6.628906 -1.070312 6.484375 -0.984375 6.328125 -0.859375 C 6.179688 -0.734375 6.03125 -0.597656 5.875 -0.453125 C 5.726562 -0.304688 5.597656 -0.15625 5.484375 0 C 5.367188 0.15625 5.28125 0.289062 5.21875 0.40625 C 5.007812 0.269531 4.820312 0.09375 4.65625 -0.125 C 4.488281 -0.351562 4.359375 -0.582031 4.265625 -0.8125 L 3.25 0.40625 C 2.875 0.1875 2.460938 0.0195312 2.015625 -0.09375 C 1.566406 -0.21875 1.054688 -0.285156 0.484375 -0.296875 C 0.585938 -0.546875 0.644531 -0.863281 0.65625 -1.25 C 0.675781 -1.644531 0.6875 -2.039062 0.6875 -2.4375 C 0.6875 -2.664062 0.671875 -2.882812 0.640625 -3.09375 C 0.617188 -3.3125 0.570312 -3.503906 0.5 -3.671875 C 0.71875 -3.640625 0.953125 -3.625 1.203125 -3.625 C 1.484375 -3.625 1.769531 -3.632812 2.0625 -3.65625 C 2.351562 -3.6875 2.628906 -3.722656 2.890625 -3.765625 C 3.160156 -3.816406 3.40625 -3.875 3.625 -3.9375 C 3.84375 -4.007812 4.023438 -4.082031 4.171875 -4.15625 L 4.171875 -5.625 C 3.835938 -5.476562 3.488281 -5.351562 3.125 -5.25 C 2.757812 -5.15625 2.460938 -5.109375 2.234375 -5.109375 C 2.054688 -5.109375 1.894531 -5.125 1.75 -5.15625 C 1.613281 -5.1875 1.484375 -5.253906 1.359375 -5.359375 C 1.242188 -5.460938 1.140625 -5.609375 1.046875 -5.796875 C 0.960938 -5.984375 0.882812 -6.222656 0.8125 -6.515625 C 0.875 -6.515625 0.914062 -6.507812 0.9375 -6.5 C 0.957031 -6.5 1.03125 -6.5 1.15625 -6.5 C 1.863281 -6.5 2.472656 -6.5625 2.984375 -6.6875 C 3.492188 -6.820312 3.890625 -6.972656 4.171875 -7.140625 C 4.492188 -6.785156 4.828125 -6.519531 5.171875 -6.34375 C 5.523438 -6.175781 5.953125 -6.09375 6.453125 -6.09375 Z M 6.453125 -6.09375 "/></g></g></g><g fill="#ffffff" fill-opacity="1"><g transform="translate(63.893776, 26.549998)"><g><path d="M 6.90625 -0.359375 C 6.90625 0.890625 6.945312 1.722656 7.03125 2.140625 C 6.757812 2.140625 6.460938 2.179688 6.140625 2.265625 C 5.816406 2.347656 5.488281 2.460938 5.15625 2.609375 C 4.820312 2.753906 4.5 2.925781 4.1875 3.125 C 3.875 3.332031 3.59375 3.554688 3.34375 3.796875 C 2.78125 3.378906 2.257812 3.078125 1.78125 2.890625 C 1.300781 2.703125 0.796875 2.609375 0.265625 2.609375 C 0.347656 2.191406 0.472656 1.8125 0.640625 1.46875 C 0.816406 1.132812 1.015625 0.863281 1.234375 0.65625 C 1.347656 0.65625 1.519531 0.703125 1.75 0.796875 C 1.976562 0.890625 2.226562 1.007812 2.5 1.15625 C 2.78125 1.3125 3.054688 1.472656 3.328125 1.640625 C 3.597656 1.804688 3.832031 1.96875 4.03125 2.125 L 5.140625 1.765625 C 5.117188 1.640625 5.097656 1.503906 5.078125 1.359375 C 5.066406 1.210938 5.054688 1.03125 5.046875 0.8125 C 5.035156 0.59375 5.023438 0.328125 5.015625 0.015625 C 5.003906 -0.285156 4.992188 -0.660156 4.984375 -1.109375 C 4.796875 -0.972656 4.585938 -0.835938 4.359375 -0.703125 C 4.128906 -0.578125 3.890625 -0.457031 3.640625 -0.34375 C 3.398438 -0.238281 3.148438 -0.144531 2.890625 -0.0625 C 2.640625 0.0195312 2.40625 0.0820312 2.1875 0.125 C 1.695312 -0.363281 1.160156 -0.695312 0.578125 -0.875 C 0.617188 -1.007812 0.648438 -1.144531 0.671875 -1.28125 C 0.703125 -1.425781 0.722656 -1.582031 0.734375 -1.75 C 0.753906 -1.925781 0.769531 -2.125 0.78125 -2.34375 C 0.789062 -2.570312 0.796875 -2.835938 0.796875 -3.140625 C 0.796875 -3.941406 0.773438 -4.554688 0.734375 -4.984375 C 0.691406 -5.421875 0.628906 -5.734375 0.546875 -5.921875 C 0.773438 -5.953125 1.019531 -6.003906 1.28125 -6.078125 C 1.550781 -6.160156 1.816406 -6.253906 2.078125 -6.359375 C 2.347656 -6.472656 2.609375 -6.597656 2.859375 -6.734375 C 3.117188 -6.878906 3.351562 -7.023438 3.5625 -7.171875 C 4.144531 -6.992188 4.613281 -6.867188 4.96875 -6.796875 C 5.332031 -6.722656 5.644531 -6.6875 5.90625 -6.6875 C 6.125 -6.6875 6.367188 -6.707031 6.640625 -6.75 C 6.910156 -6.789062 7.144531 -6.847656 7.34375 -6.921875 C 7.269531 -6.765625 7.203125 -6.578125 7.140625 -6.359375 C 7.078125 -6.140625 7.03125 -5.875 7 -5.5625 C 6.96875 -5.25 6.941406 -4.875 6.921875 -4.4375 C 6.910156 -4.007812 6.90625 -3.5 6.90625 -2.90625 Z M 3.59375 -5.703125 C 3.488281 -5.597656 3.351562 -5.476562 3.1875 -5.34375 C 3.019531 -5.21875 2.867188 -5.117188 2.734375 -5.046875 C 2.753906 -4.753906 2.765625 -4.21875 2.765625 -3.4375 C 2.765625 -3.019531 2.757812 -2.671875 2.75 -2.390625 C 2.75 -2.109375 2.734375 -1.84375 2.703125 -1.59375 C 2.878906 -1.601562 3.070312 -1.625 3.28125 -1.65625 C 3.5 -1.695312 3.710938 -1.75 3.921875 -1.8125 C 4.140625 -1.875 4.34375 -1.941406 4.53125 -2.015625 C 4.71875 -2.085938 4.867188 -2.160156 4.984375 -2.234375 L 4.984375 -2.828125 C 4.984375 -3.484375 4.992188 -4.015625 5.015625 -4.421875 C 5.035156 -4.835938 5.070312 -5.164062 5.125 -5.40625 C 5.019531 -5.40625 4.898438 -5.410156 4.765625 -5.421875 C 4.640625 -5.441406 4.503906 -5.46875 4.359375 -5.5 C 4.222656 -5.53125 4.085938 -5.5625 3.953125 -5.59375 C 3.816406 -5.632812 3.695312 -5.671875 3.59375 -5.703125 Z M 3.59375 -5.703125 "/></g></g></g><g fill="#ffffff" fill-opacity="1"><g transform="translate(71.734687, 26.549998)"><g><path d="M 3.15625 -7.140625 C 3.832031 -6.910156 4.394531 -6.753906 4.84375 -6.671875 C 5.300781 -6.597656 5.722656 -6.5625 6.109375 -6.5625 C 6.328125 -6.5625 6.488281 -6.5625 6.59375 -6.5625 C 6.707031 -6.570312 6.820312 -6.585938 6.9375 -6.609375 C 6.8125 -5.972656 6.75 -5.21875 6.75 -4.34375 C 6.75 -3.289062 6.835938 -2.257812 7.015625 -1.25 C 6.773438 -1.21875 6.515625 -1.15625 6.234375 -1.0625 C 5.960938 -0.96875 5.6875 -0.84375 5.40625 -0.6875 C 5.132812 -0.539062 4.867188 -0.367188 4.609375 -0.171875 C 4.359375 0.015625 4.128906 0.207031 3.921875 0.40625 C 3.816406 0.320312 3.628906 0.234375 3.359375 0.140625 C 3.097656 0.046875 2.804688 -0.0351562 2.484375 -0.109375 C 2.171875 -0.191406 1.859375 -0.257812 1.546875 -0.3125 C 1.234375 -0.363281 0.972656 -0.390625 0.765625 -0.390625 C 0.703125 -0.390625 0.644531 -0.382812 0.59375 -0.375 C 0.539062 -0.375 0.488281 -0.367188 0.4375 -0.359375 C 0.582031 -0.472656 0.6875 -0.703125 0.75 -1.046875 C 0.8125 -1.398438 0.84375 -1.859375 0.84375 -2.421875 C 0.84375 -2.703125 0.832031 -3.007812 0.8125 -3.34375 C 0.789062 -3.6875 0.757812 -4.007812 0.71875 -4.3125 C 0.6875 -4.625 0.648438 -4.882812 0.609375 -5.09375 C 0.578125 -5.3125 0.539062 -5.445312 0.5 -5.5 C 0.882812 -5.570312 1.3125 -5.75 1.78125 -6.03125 C 2.257812 -6.320312 2.71875 -6.691406 3.15625 -7.140625 Z M 4.921875 -5.265625 C 4.472656 -5.304688 4.03125 -5.375 3.59375 -5.46875 C 3.164062 -5.5625 2.835938 -5.664062 2.609375 -5.78125 C 2.660156 -5.363281 2.695312 -4.972656 2.71875 -4.609375 C 2.738281 -4.253906 2.75 -3.898438 2.75 -3.546875 C 2.75 -3.253906 2.738281 -2.925781 2.71875 -2.5625 C 2.707031 -2.207031 2.691406 -1.859375 2.671875 -1.515625 C 3.003906 -1.472656 3.367188 -1.414062 3.765625 -1.34375 C 4.171875 -1.28125 4.546875 -1.195312 4.890625 -1.09375 Z M 4.921875 -5.265625 "/></g></g></g><g fill="#ffffff" fill-opacity="1"><g transform="translate(79.266086, 26.549998)"><g><path d="M 2.9375 -5.484375 C 3.351562 -5.765625 3.726562 -6.039062 4.0625 -6.3125 C 4.40625 -6.582031 4.753906 -6.90625 5.109375 -7.28125 C 5.273438 -7.125 5.425781 -6.984375 5.5625 -6.859375 C 5.695312 -6.742188 5.832031 -6.632812 5.96875 -6.53125 C 6.113281 -6.4375 6.265625 -6.34375 6.421875 -6.25 C 6.585938 -6.15625 6.773438 -6.054688 6.984375 -5.953125 C 6.941406 -5.816406 6.90625 -5.671875 6.875 -5.515625 C 6.851562 -5.367188 6.832031 -5.175781 6.8125 -4.9375 C 6.800781 -4.707031 6.789062 -4.421875 6.78125 -4.078125 C 6.769531 -3.734375 6.765625 -3.300781 6.765625 -2.78125 C 6.765625 -2.351562 6.765625 -2 6.765625 -1.71875 C 6.773438 -1.4375 6.785156 -1.207031 6.796875 -1.03125 C 6.804688 -0.851562 6.820312 -0.707031 6.84375 -0.59375 C 6.863281 -0.476562 6.882812 -0.375 6.90625 -0.28125 C 6.707031 -0.207031 6.503906 -0.113281 6.296875 0 C 6.097656 0.113281 5.898438 0.242188 5.703125 0.390625 C 5.503906 0.546875 5.316406 0.703125 5.140625 0.859375 C 4.960938 1.015625 4.800781 1.164062 4.65625 1.3125 L 4.578125 1.21875 C 4.628906 1.019531 4.679688 0.773438 4.734375 0.484375 C 4.785156 0.203125 4.820312 -0.0820312 4.84375 -0.375 C 4.875 -0.664062 4.898438 -0.929688 4.921875 -1.171875 C 4.941406 -1.421875 4.953125 -1.601562 4.953125 -1.71875 C 4.953125 -2.269531 4.945312 -2.828125 4.9375 -3.390625 C 4.9375 -3.953125 4.9375 -4.515625 4.9375 -5.078125 L 4.75 -5.28125 L 2.9375 -4.46875 L 2.9375 -1.296875 C 2.9375 -0.679688 3.066406 -0.320312 3.328125 -0.21875 L 3.328125 0 L 0.625 0 L 0.625 -0.21875 C 0.738281 -0.269531 0.832031 -0.367188 0.90625 -0.515625 C 0.976562 -0.671875 1.015625 -0.890625 1.015625 -1.171875 L 1.015625 -6.3125 L 0.46875 -6.546875 L 0.46875 -6.71875 C 0.8125 -6.757812 1.1875 -6.820312 1.59375 -6.90625 C 2 -6.988281 2.359375 -7.070312 2.671875 -7.15625 L 2.9375 -6.71875 Z M 2.9375 -5.484375 "/></g></g></g><g fill="#ffffff" fill-opacity="1"><g transform="translate(86.959611, 26.549998)"><g><path d="M 3.546875 0.40625 C 3.253906 0.207031 2.894531 0.015625 2.46875 -0.171875 C 2.050781 -0.359375 1.617188 -0.507812 1.171875 -0.625 C 1.179688 -0.738281 1.1875 -0.867188 1.1875 -1.015625 C 1.195312 -1.171875 1.203125 -1.328125 1.203125 -1.484375 C 1.210938 -1.648438 1.21875 -1.8125 1.21875 -1.96875 C 1.226562 -2.125 1.234375 -2.253906 1.234375 -2.359375 C 1.234375 -3.253906 1.164062 -4.003906 1.03125 -4.609375 C 0.90625 -5.222656 0.742188 -5.691406 0.546875 -6.015625 L 0.125 -6.109375 L 0.125 -6.359375 C 0.289062 -6.378906 0.488281 -6.414062 0.71875 -6.46875 C 0.957031 -6.519531 1.191406 -6.582031 1.421875 -6.65625 C 1.648438 -6.726562 1.863281 -6.804688 2.0625 -6.890625 C 2.257812 -6.972656 2.40625 -7.054688 2.5 -7.140625 C 2.738281 -6.796875 2.90625 -6.226562 3 -5.4375 C 3.09375 -4.65625 3.140625 -3.734375 3.140625 -2.671875 C 3.140625 -2.460938 3.140625 -2.25 3.140625 -2.03125 C 3.140625 -1.820312 3.132812 -1.609375 3.125 -1.390625 L 3.859375 -0.984375 L 3.953125 -0.984375 C 4.085938 -1.222656 4.207031 -1.519531 4.3125 -1.875 C 4.414062 -2.238281 4.503906 -2.613281 4.578125 -3 C 4.648438 -3.394531 4.707031 -3.78125 4.75 -4.15625 C 4.789062 -4.539062 4.8125 -4.875 4.8125 -5.15625 C 4.8125 -5.550781 4.769531 -5.847656 4.6875 -6.046875 C 4.601562 -6.242188 4.476562 -6.378906 4.3125 -6.453125 L 4.328125 -6.703125 C 4.703125 -6.722656 5.085938 -6.769531 5.484375 -6.84375 C 5.878906 -6.925781 6.269531 -7.023438 6.65625 -7.140625 C 6.632812 -7.109375 6.625 -7.070312 6.625 -7.03125 C 6.625 -7 6.625 -6.957031 6.625 -6.90625 C 6.625 -6.59375 6.640625 -6.296875 6.671875 -6.015625 C 6.710938 -5.734375 6.804688 -5.519531 6.953125 -5.375 L 5.515625 -1 L 3.6875 0.40625 Z M 3.546875 0.40625 "/></g></g></g><g fill="#ffffff" fill-opacity="1"><g transform="translate(94.255196, 26.549998)"><g><path d="M 3.484375 0.46875 C 3.296875 0.332031 3.0625 0.203125 2.78125 0.078125 C 2.507812 -0.0351562 2.226562 -0.132812 1.9375 -0.21875 C 1.644531 -0.300781 1.363281 -0.363281 1.09375 -0.40625 C 0.820312 -0.457031 0.597656 -0.484375 0.421875 -0.484375 C 0.503906 -0.609375 0.570312 -0.785156 0.625 -1.015625 C 0.6875 -1.253906 0.734375 -1.507812 0.765625 -1.78125 C 0.804688 -2.050781 0.832031 -2.328125 0.84375 -2.609375 C 0.863281 -2.890625 0.875 -3.148438 0.875 -3.390625 C 0.875 -3.992188 0.835938 -4.492188 0.765625 -4.890625 C 0.691406 -5.285156 0.617188 -5.597656 0.546875 -5.828125 C 0.972656 -5.898438 1.359375 -6.050781 1.703125 -6.28125 C 2.054688 -6.507812 2.40625 -6.796875 2.75 -7.140625 C 3.144531 -7.054688 3.640625 -6.988281 4.234375 -6.9375 C 4.828125 -6.882812 5.410156 -6.847656 5.984375 -6.828125 C 5.953125 -6.648438 5.9375 -6.429688 5.9375 -6.171875 C 5.9375 -5.960938 5.945312 -5.738281 5.96875 -5.5 C 5.988281 -5.257812 6.015625 -5.019531 6.046875 -4.78125 C 6.078125 -4.539062 6.113281 -4.3125 6.15625 -4.09375 C 6.207031 -3.882812 6.265625 -3.703125 6.328125 -3.546875 C 5.722656 -3.492188 5.109375 -3.425781 4.484375 -3.34375 C 3.867188 -3.257812 3.269531 -3.164062 2.6875 -3.0625 C 2.675781 -2.78125 2.65625 -2.5 2.625 -2.21875 C 2.59375 -1.945312 2.566406 -1.707031 2.546875 -1.5 C 2.671875 -1.457031 2.820312 -1.414062 3 -1.375 C 3.1875 -1.332031 3.378906 -1.289062 3.578125 -1.25 C 3.785156 -1.21875 3.988281 -1.191406 4.1875 -1.171875 C 4.382812 -1.148438 4.550781 -1.132812 4.6875 -1.125 C 4.738281 -1.425781 4.859375 -1.6875 5.046875 -1.90625 C 5.242188 -2.125 5.570312 -2.300781 6.03125 -2.4375 C 6.019531 -2.3125 6.015625 -2.191406 6.015625 -2.078125 C 6.015625 -1.972656 6.015625 -1.863281 6.015625 -1.75 C 6.015625 -1.414062 6.023438 -1.148438 6.046875 -0.953125 C 6.078125 -0.765625 6.125 -0.578125 6.1875 -0.390625 C 6.007812 -0.378906 5.789062 -0.34375 5.53125 -0.28125 C 5.269531 -0.226562 5.007812 -0.160156 4.75 -0.078125 C 4.5 0.00390625 4.257812 0.09375 4.03125 0.1875 C 3.800781 0.28125 3.617188 0.375 3.484375 0.46875 Z M 2.53125 -5.8125 C 2.582031 -5.394531 2.617188 -5.03125 2.640625 -4.71875 C 2.671875 -4.40625 2.691406 -4.113281 2.703125 -3.84375 L 4.421875 -4.28125 C 4.367188 -4.476562 4.328125 -4.679688 4.296875 -4.890625 C 4.265625 -5.109375 4.25 -5.332031 4.25 -5.5625 C 4.019531 -5.5625 3.742188 -5.582031 3.421875 -5.625 C 3.109375 -5.664062 2.8125 -5.726562 2.53125 -5.8125 Z M 2.53125 -5.8125 "/></g></g></g><g fill="#ffffff" fill-opacity="1"><g transform="translate(101.049668, 26.549998)"><g><path d="M 2.953125 -4.734375 C 3.179688 -5.097656 3.390625 -5.476562 3.578125 -5.875 C 3.773438 -6.28125 3.957031 -6.710938 4.125 -7.171875 C 4.3125 -7.046875 4.578125 -6.921875 4.921875 -6.796875 C 5.265625 -6.679688 5.644531 -6.570312 6.0625 -6.46875 C 6.007812 -6.0625 5.921875 -5.6875 5.796875 -5.34375 C 5.671875 -5.007812 5.507812 -4.726562 5.3125 -4.5 L 4.328125 -5.015625 L 4.140625 -5.015625 L 2.953125 -3.328125 L 2.953125 -1.296875 C 2.953125 -0.953125 3.007812 -0.703125 3.125 -0.546875 C 3.25 -0.398438 3.472656 -0.300781 3.796875 -0.25 L 3.796875 0 L 0.640625 0 L 0.640625 -0.21875 C 0.898438 -0.320312 1.03125 -0.640625 1.03125 -1.171875 L 1.03125 -6.3125 L 0.484375 -6.546875 L 0.484375 -6.71875 C 0.828125 -6.757812 1.203125 -6.820312 1.609375 -6.90625 C 2.015625 -6.988281 2.375 -7.070312 2.6875 -7.15625 L 2.953125 -6.71875 Z M 2.953125 -4.734375 "/></g></g></g><g fill="#ffffff" fill-opacity="1"><g transform="translate(107.166171, 26.549998)"><g><path d="M 2.796875 -5.9375 C 2.773438 -5.78125 2.765625 -5.628906 2.765625 -5.484375 C 2.765625 -5.335938 2.765625 -5.164062 2.765625 -4.96875 C 2.765625 -4.769531 2.765625 -4.570312 2.765625 -4.375 C 2.773438 -4.175781 2.789062 -4 2.8125 -3.84375 C 3 -3.914062 3.191406 -3.972656 3.390625 -4.015625 C 3.597656 -4.066406 3.828125 -4.113281 4.078125 -4.15625 C 4.328125 -4.195312 4.609375 -4.234375 4.921875 -4.265625 C 5.242188 -4.296875 5.613281 -4.320312 6.03125 -4.34375 C 6 -4 5.984375 -3.5 5.984375 -2.84375 C 5.984375 -2.28125 5.992188 -1.78125 6.015625 -1.34375 C 6.035156 -0.90625 6.070312 -0.578125 6.125 -0.359375 C 5.8125 -0.359375 5.5 -0.335938 5.1875 -0.296875 C 4.875 -0.253906 4.570312 -0.195312 4.28125 -0.125 C 4 -0.0625 3.734375 0.015625 3.484375 0.109375 C 3.242188 0.210938 3.039062 0.320312 2.875 0.4375 C 2.757812 0.332031 2.628906 0.238281 2.484375 0.15625 C 2.335938 0.0820312 2.164062 0.0195312 1.96875 -0.03125 C 1.78125 -0.09375 1.550781 -0.140625 1.28125 -0.171875 C 1.019531 -0.203125 0.707031 -0.226562 0.34375 -0.25 C 0.363281 -0.550781 0.421875 -0.863281 0.515625 -1.1875 C 0.617188 -1.507812 0.753906 -1.769531 0.921875 -1.96875 C 1.140625 -1.96875 1.488281 -1.878906 1.96875 -1.703125 C 2.457031 -1.535156 3.097656 -1.273438 3.890625 -0.921875 C 3.953125 -1.242188 4 -1.535156 4.03125 -1.796875 C 4.0625 -2.054688 4.078125 -2.328125 4.078125 -2.609375 C 4.078125 -2.785156 4.078125 -2.910156 4.078125 -2.984375 C 4.078125 -3.066406 4.070312 -3.144531 4.0625 -3.21875 C 3.625 -3.175781 3.117188 -3.101562 2.546875 -3 C 1.984375 -2.894531 1.445312 -2.773438 0.9375 -2.640625 C 0.976562 -3.066406 1.003906 -3.394531 1.015625 -3.625 C 1.023438 -3.851562 1.03125 -4.0625 1.03125 -4.25 C 1.03125 -4.6875 1.007812 -5.070312 0.96875 -5.40625 C 0.925781 -5.75 0.851562 -6.0625 0.75 -6.34375 C 1.125 -6.34375 1.523438 -6.40625 1.953125 -6.53125 C 2.390625 -6.65625 2.929688 -6.859375 3.578125 -7.140625 C 4.203125 -6.828125 5.128906 -6.625 6.359375 -6.53125 C 6.179688 -6.113281 5.976562 -5.804688 5.75 -5.609375 C 5.519531 -5.421875 5.238281 -5.328125 4.90625 -5.328125 C 4.757812 -5.328125 4.59375 -5.335938 4.40625 -5.359375 C 4.21875 -5.390625 4.03125 -5.4375 3.84375 -5.5 C 3.65625 -5.5625 3.46875 -5.628906 3.28125 -5.703125 C 3.101562 -5.773438 2.941406 -5.851562 2.796875 -5.9375 Z M 2.796875 -5.9375 "/></g></g></g><g fill="#ffffff" fill-opacity="1"><g transform="translate(113.945902, 26.549998)"><g><path d="M 3.484375 0.46875 C 3.296875 0.332031 3.0625 0.203125 2.78125 0.078125 C 2.507812 -0.0351562 2.226562 -0.132812 1.9375 -0.21875 C 1.644531 -0.300781 1.363281 -0.363281 1.09375 -0.40625 C 0.820312 -0.457031 0.597656 -0.484375 0.421875 -0.484375 C 0.503906 -0.609375 0.570312 -0.785156 0.625 -1.015625 C 0.6875 -1.253906 0.734375 -1.507812 0.765625 -1.78125 C 0.804688 -2.050781 0.832031 -2.328125 0.84375 -2.609375 C 0.863281 -2.890625 0.875 -3.148438 0.875 -3.390625 C 0.875 -3.992188 0.835938 -4.492188 0.765625 -4.890625 C 0.691406 -5.285156 0.617188 -5.597656 0.546875 -5.828125 C 0.972656 -5.898438 1.359375 -6.050781 1.703125 -6.28125 C 2.054688 -6.507812 2.40625 -6.796875 2.75 -7.140625 C 3.144531 -7.054688 3.640625 -6.988281 4.234375 -6.9375 C 4.828125 -6.882812 5.410156 -6.847656 5.984375 -6.828125 C 5.953125 -6.648438 5.9375 -6.429688 5.9375 -6.171875 C 5.9375 -5.960938 5.945312 -5.738281 5.96875 -5.5 C 5.988281 -5.257812 6.015625 -5.019531 6.046875 -4.78125 C 6.078125 -4.539062 6.113281 -4.3125 6.15625 -4.09375 C 6.207031 -3.882812 6.265625 -3.703125 6.328125 -3.546875 C 5.722656 -3.492188 5.109375 -3.425781 4.484375 -3.34375 C 3.867188 -3.257812 3.269531 -3.164062 2.6875 -3.0625 C 2.675781 -2.78125 2.65625 -2.5 2.625 -2.21875 C 2.59375 -1.945312 2.566406 -1.707031 2.546875 -1.5 C 2.671875 -1.457031 2.820312 -1.414062 3 -1.375 C 3.1875 -1.332031 3.378906 -1.289062 3.578125 -1.25 C 3.785156 -1.21875 3.988281 -1.191406 4.1875 -1.171875 C 4.382812 -1.148438 4.550781 -1.132812 4.6875 -1.125 C 4.738281 -1.425781 4.859375 -1.6875 5.046875 -1.90625 C 5.242188 -2.125 5.570312 -2.300781 6.03125 -2.4375 C 6.019531 -2.3125 6.015625 -2.191406 6.015625 -2.078125 C 6.015625 -1.972656 6.015625 -1.863281 6.015625 -1.75 C 6.015625 -1.414062 6.023438 -1.148438 6.046875 -0.953125 C 6.078125 -0.765625 6.125 -0.578125 6.1875 -0.390625 C 6.007812 -0.378906 5.789062 -0.34375 5.53125 -0.28125 C 5.269531 -0.226562 5.007812 -0.160156 4.75 -0.078125 C 4.5 0.00390625 4.257812 0.09375 4.03125 0.1875 C 3.800781 0.28125 3.617188 0.375 3.484375 0.46875 Z M 2.53125 -5.8125 C 2.582031 -5.394531 2.617188 -5.03125 2.640625 -4.71875 C 2.671875 -4.40625 2.691406 -4.113281 2.703125 -3.84375 L 4.421875 -4.28125 C 4.367188 -4.476562 4.328125 -4.679688 4.296875 -4.890625 C 4.265625 -5.109375 4.25 -5.332031 4.25 -5.5625 C 4.019531 -5.5625 3.742188 -5.582031 3.421875 -5.625 C 3.109375 -5.664062 2.8125 -5.726562 2.53125 -5.8125 Z M 2.53125 -5.8125 "/></g></g></g><g clip-path="url(#id1)"><g clip-path="url(#id2)"><path fill="url(#id3)" d="M 55.914062 34.34375 L 55.914062 39.324219 L 61.328125 39.324219 L 61.328125 34.34375 Z M 55.914062 34.34375 " fill-rule="nonzero"/></g></g><g clip-path="url(#id4)"><path fill="#ffffff" d="M 66.460938 36.449219 L 64.195312 36.449219 L 64.195312 35.683594 L 67.046875 35.683594 L 67.046875 34.914062 L 64.1875 34.914062 C 64.089844 34.914062 63.992188 34.933594 63.902344 34.972656 C 63.8125 35.007812 63.730469 35.066406 63.660156 35.136719 C 63.589844 35.207031 63.535156 35.289062 63.496094 35.382812 C 63.457031 35.476562 63.4375 35.574219 63.4375 35.675781 L 63.4375 36.453125 C 63.4375 36.554688 63.457031 36.65625 63.496094 36.746094 C 63.535156 36.839844 63.589844 36.925781 63.660156 36.996094 C 63.726562 37.066406 63.8125 37.121094 63.902344 37.160156 C 63.992188 37.199219 64.089844 37.21875 64.1875 37.21875 L 66.453125 37.21875 L 66.453125 37.984375 L 63.492188 37.984375 L 63.492188 38.753906 L 66.460938 38.753906 C 66.558594 38.753906 66.652344 38.734375 66.746094 38.695312 C 66.835938 38.660156 66.917969 38.601562 66.988281 38.53125 C 67.054688 38.460938 67.113281 38.378906 67.148438 38.285156 C 67.1875 38.191406 67.207031 38.09375 67.207031 37.992188 L 67.207031 37.214844 C 67.207031 37.113281 67.1875 37.011719 67.148438 36.917969 C 67.113281 36.828125 67.054688 36.742188 66.988281 36.671875 C 66.917969 36.601562 66.835938 36.542969 66.746094 36.507812 C 66.652344 36.46875 66.558594 36.449219 66.460938 36.449219 Z M 66.460938 36.449219 " fill-opacity="1" fill-rule="nonzero"/></g><g clip-path="url(#id5)"><path fill="#ffffff" d="M 70.847656 34.914062 L 68.574219 34.914062 C 68.476562 34.914062 68.378906 34.933594 68.289062 34.96875 C 68.195312 35.007812 68.113281 35.0625 68.042969 35.136719 C 67.976562 35.207031 67.917969 35.289062 67.882812 35.382812 C 67.84375 35.476562 67.824219 35.574219 67.824219 35.675781 L 67.824219 37.992188 C 67.824219 38.09375 67.84375 38.191406 67.882812 38.285156 C 67.917969 38.378906 67.976562 38.460938 68.042969 38.53125 C 68.113281 38.601562 68.195312 38.660156 68.289062 38.699219 C 68.378906 38.734375 68.476562 38.753906 68.574219 38.753906 L 70.847656 38.753906 C 70.945312 38.753906 71.042969 38.734375 71.132812 38.695312 C 71.222656 38.660156 71.304688 38.601562 71.375 38.53125 C 71.445312 38.460938 71.5 38.378906 71.535156 38.285156 C 71.574219 38.191406 71.59375 38.09375 71.59375 37.992188 L 71.59375 35.675781 C 71.59375 35.574219 71.574219 35.476562 71.535156 35.382812 C 71.5 35.289062 71.445312 35.207031 71.375 35.136719 C 71.304688 35.066406 71.222656 35.007812 71.132812 34.972656 C 71.042969 34.933594 70.945312 34.914062 70.847656 34.914062 Z M 70.839844 37.984375 L 68.578125 37.984375 L 68.578125 35.683594 L 70.839844 35.683594 Z M 70.839844 37.984375 " fill-opacity="1" fill-rule="nonzero"/></g><g clip-path="url(#id6)"><path fill="#ffffff" d="M 78.808594 34.914062 L 76.589844 34.914062 C 76.492188 34.914062 76.398438 34.933594 76.304688 34.972656 C 76.214844 35.007812 76.132812 35.066406 76.0625 35.136719 C 75.996094 35.207031 75.941406 35.289062 75.902344 35.382812 C 75.863281 35.476562 75.84375 35.574219 75.84375 35.675781 L 75.84375 38.753906 L 76.597656 38.753906 L 76.597656 37.492188 L 78.808594 37.492188 L 78.808594 38.753906 L 79.5625 38.753906 L 79.5625 35.675781 C 79.5625 35.574219 79.542969 35.476562 79.503906 35.382812 C 79.464844 35.289062 79.410156 35.203125 79.339844 35.132812 C 79.269531 35.0625 79.1875 35.007812 79.097656 34.96875 C 79.003906 34.933594 78.90625 34.914062 78.808594 34.914062 Z M 78.804688 36.722656 L 76.597656 36.722656 L 76.597656 35.683594 L 78.804688 35.683594 Z M 78.804688 36.722656 " fill-opacity="1" fill-rule="nonzero"/></g><g clip-path="url(#id7)"><path fill="#ffffff" d="M 87.636719 34.914062 L 85.417969 34.914062 C 85.320312 34.914062 85.222656 34.933594 85.132812 34.972656 C 85.042969 35.007812 84.960938 35.066406 84.890625 35.136719 C 84.820312 35.207031 84.765625 35.289062 84.726562 35.382812 C 84.691406 35.476562 84.671875 35.574219 84.671875 35.675781 L 84.671875 38.753906 L 85.425781 38.753906 L 85.425781 37.492188 L 87.628906 37.492188 L 87.628906 38.753906 L 88.382812 38.753906 L 88.382812 35.675781 C 88.382812 35.574219 88.363281 35.476562 88.328125 35.382812 C 88.289062 35.289062 88.234375 35.207031 88.164062 35.136719 C 88.09375 35.066406 88.011719 35.007812 87.921875 34.972656 C 87.832031 34.933594 87.734375 34.914062 87.636719 34.914062 Z M 87.628906 36.722656 L 85.421875 36.722656 L 85.421875 35.683594 L 87.628906 35.683594 Z M 87.628906 36.722656 " fill-opacity="1" fill-rule="nonzero"/></g><g clip-path="url(#id8)"><path fill="#ffffff" d="M 83.242188 37.984375 L 82.941406 37.984375 L 81.859375 35.234375 C 81.824219 35.140625 81.761719 35.058594 81.675781 35.003906 C 81.59375 34.945312 81.5 34.914062 81.398438 34.914062 L 80.726562 34.914062 C 80.664062 34.914062 80.597656 34.925781 80.539062 34.953125 C 80.476562 34.976562 80.421875 35.015625 80.375 35.0625 C 80.332031 35.109375 80.292969 35.164062 80.269531 35.226562 C 80.242188 35.289062 80.230469 35.355469 80.230469 35.421875 L 80.230469 38.753906 L 80.984375 38.753906 L 80.984375 35.683594 L 81.289062 35.683594 L 82.367188 38.433594 C 82.40625 38.527344 82.46875 38.609375 82.550781 38.664062 C 82.636719 38.722656 82.734375 38.75 82.832031 38.75 L 83.503906 38.75 C 83.566406 38.75 83.632812 38.738281 83.691406 38.714844 C 83.753906 38.6875 83.808594 38.652344 83.855469 38.605469 C 83.902344 38.554688 83.9375 38.5 83.960938 38.4375 C 83.988281 38.375 84 38.308594 84 38.242188 L 84 34.914062 L 83.242188 34.914062 Z M 83.242188 37.984375 " fill-opacity="1" fill-rule="nonzero"/></g><g clip-path="url(#id9)"><path fill="#ffffff" d="M 73.019531 34.914062 L 72.261719 34.914062 L 72.261719 37.992188 C 72.261719 38.09375 72.28125 38.191406 72.320312 38.285156 C 72.359375 38.378906 72.414062 38.460938 72.484375 38.53125 C 72.554688 38.605469 72.636719 38.660156 72.726562 38.699219 C 72.820312 38.734375 72.914062 38.753906 73.011719 38.753906 L 75.28125 38.753906 L 75.28125 37.984375 L 73.019531 37.984375 Z M 73.019531 34.914062 " fill-opacity="1" fill-rule="nonzero"/></g><g clip-path="url(#id10)"><path fill="#ffffff" d="M 48.925781 34.914062 L 46.707031 34.914062 C 46.609375 34.914062 46.515625 34.933594 46.421875 34.972656 C 46.332031 35.007812 46.25 35.066406 46.179688 35.136719 C 46.113281 35.207031 46.054688 35.289062 46.019531 35.382812 C 45.980469 35.476562 45.960938 35.574219 45.960938 35.675781 L 45.960938 38.753906 L 46.714844 38.753906 L 46.714844 37.492188 L 48.921875 37.492188 L 48.921875 38.753906 L 49.679688 38.753906 L 49.679688 35.675781 C 49.679688 35.574219 49.660156 35.476562 49.621094 35.382812 C 49.582031 35.289062 49.527344 35.203125 49.457031 35.132812 C 49.386719 35.0625 49.304688 35.007812 49.210938 34.96875 C 49.121094 34.933594 49.023438 34.914062 48.925781 34.914062 Z M 48.921875 36.722656 L 46.714844 36.722656 L 46.714844 35.683594 L 48.921875 35.683594 Z M 48.921875 36.722656 " fill-opacity="1" fill-rule="nonzero"/></g><g clip-path="url(#id11)"><path fill="#ffffff" d="M 57.753906 34.914062 L 55.535156 34.914062 C 55.4375 34.914062 55.339844 34.933594 55.25 34.972656 C 55.160156 35.007812 55.078125 35.066406 55.007812 35.136719 C 54.9375 35.207031 54.882812 35.289062 54.84375 35.382812 C 54.808594 35.476562 54.789062 35.574219 54.789062 35.675781 L 54.789062 38.753906 L 55.542969 38.753906 L 55.542969 37.492188 L 57.746094 37.492188 L 57.746094 38.753906 L 58.5 38.753906 L 58.5 35.675781 C 58.5 35.574219 58.480469 35.476562 58.441406 35.382812 C 58.40625 35.289062 58.351562 35.207031 58.28125 35.136719 C 58.210938 35.066406 58.128906 35.007812 58.039062 34.972656 C 57.949219 34.933594 57.851562 34.914062 57.753906 34.914062 Z M 57.746094 36.722656 L 55.539062 36.722656 L 55.539062 35.683594 L 57.746094 35.683594 Z M 57.746094 36.722656 " fill-opacity="1" fill-rule="nonzero"/></g><g clip-path="url(#id12)"><path fill="#ffffff" d="M 53.359375 37.984375 L 53.058594 37.984375 L 51.976562 35.234375 C 51.941406 35.140625 51.875 35.058594 51.792969 35.003906 C 51.710938 34.945312 51.617188 34.914062 51.515625 34.914062 L 50.84375 34.914062 C 50.78125 34.914062 50.714844 34.925781 50.65625 34.953125 C 50.59375 34.976562 50.539062 35.015625 50.492188 35.0625 C 50.445312 35.109375 50.410156 35.164062 50.386719 35.226562 C 50.359375 35.289062 50.347656 35.355469 50.347656 35.421875 L 50.347656 38.753906 L 51.101562 38.753906 L 51.101562 35.683594 L 51.40625 35.683594 L 52.484375 38.433594 C 52.523438 38.527344 52.585938 38.609375 52.667969 38.664062 C 52.753906 38.722656 52.847656 38.75 52.949219 38.75 L 53.621094 38.75 C 53.683594 38.75 53.75 38.738281 53.808594 38.714844 C 53.871094 38.6875 53.925781 38.652344 53.972656 38.605469 C 54.019531 38.554688 54.054688 38.5 54.078125 38.4375 C 54.105469 38.375 54.117188 38.308594 54.117188 38.242188 L 54.117188 34.914062 L 53.359375 34.914062 Z M 53.359375 37.984375 " fill-opacity="1" fill-rule="nonzero"/></g><g clip-path="url(#id13)"><path fill="#ffffff" d="M 44.378906 36.449219 L 42.113281 36.449219 L 42.113281 35.683594 L 44.96875 35.683594 L 44.96875 34.914062 L 42.105469 34.914062 C 42.007812 34.914062 41.910156 34.933594 41.820312 34.972656 C 41.730469 35.007812 41.648438 35.066406 41.578125 35.136719 C 41.507812 35.207031 41.453125 35.289062 41.417969 35.382812 C 41.378906 35.476562 41.359375 35.574219 41.359375 35.675781 L 41.359375 36.453125 C 41.359375 36.554688 41.378906 36.65625 41.417969 36.746094 C 41.453125 36.839844 41.507812 36.925781 41.578125 36.996094 C 41.648438 37.066406 41.730469 37.121094 41.820312 37.160156 C 41.910156 37.199219 42.007812 37.21875 42.105469 37.21875 L 44.375 37.21875 L 44.375 37.984375 L 41.410156 37.984375 L 41.410156 38.753906 L 44.378906 38.753906 C 44.476562 38.753906 44.574219 38.734375 44.664062 38.695312 C 44.753906 38.660156 44.835938 38.601562 44.90625 38.53125 C 44.976562 38.460938 45.03125 38.378906 45.070312 38.285156 C 45.105469 38.191406 45.125 38.09375 45.128906 37.992188 L 45.128906 37.214844 C 45.125 37.113281 45.105469 37.011719 45.070312 36.917969 C 45.03125 36.828125 44.976562 36.742188 44.90625 36.671875 C 44.835938 36.601562 44.753906 36.542969 44.664062 36.507812 C 44.574219 36.46875 44.476562 36.449219 44.378906 36.449219 Z M 44.378906 36.449219 " fill-opacity="1" fill-rule="nonzero"/></g><g clip-path="url(#id14)"><path fill="#ffffff" d="M 48.765625 34.914062 L 46.492188 34.914062 C 46.394531 34.914062 46.296875 34.933594 46.207031 34.96875 C 46.117188 35.007812 46.035156 35.0625 45.964844 35.136719 C 45.894531 35.207031 45.839844 35.289062 45.800781 35.382812 C 45.761719 35.476562 45.742188 35.574219 45.742188 35.675781 L 45.742188 37.992188 C 45.742188 38.09375 45.761719 38.191406 45.800781 38.285156 C 45.839844 38.378906 45.894531 38.460938 45.964844 38.53125 C 46.035156 38.601562 46.117188 38.660156 46.207031 38.699219 C 46.296875 38.734375 46.394531 38.753906 46.492188 38.753906 L 48.765625 38.753906 C 48.863281 38.753906 48.960938 38.734375 49.050781 38.695312 C 49.140625 38.660156 49.222656 38.601562 49.292969 38.53125 C 49.363281 38.460938 49.417969 38.378906 49.457031 38.285156 C 49.496094 38.191406 49.515625 38.09375 49.515625 37.992188 L 49.515625 35.675781 C 49.515625 35.574219 49.496094 35.476562 49.457031 35.382812 C 49.417969 35.289062 49.363281 35.207031 49.292969 35.136719 C 49.222656 35.066406 49.140625 35.007812 49.050781 34.972656 C 48.960938 34.933594 48.863281 34.914062 48.765625 34.914062 Z M 48.761719 37.984375 L 46.5 37.984375 L 46.5 35.683594 L 48.761719 35.683594 Z M 48.761719 37.984375 " fill-opacity="1" fill-rule="nonzero"/></g></svg>