<svg width="307" height="101" viewBox="0 0 307 101" fill="none" xmlns="http://www.w3.org/2000/svg">
<path d="M36.1879 39.4663L36.0466 39.3275C35.7639 39.0501 35.6225 38.8651 35.6225 38.7727L35.5518 8.11521C35.5518 6.95919 35.3162 5.89566 34.845 4.92461C34.4209 3.90732 33.8084 3.02875 33.0074 2.28891C32.2534 1.54906 31.3582 0.994172 30.3215 0.624247C29.2849 0.208082 28.154 0 26.9289 0L6.50252 0.693611V0.83233H5.93708V0.90169H5.8664C4.92401 0.90169 3.98162 0.85545 3.03922 0.762971C2.09683 0.624248 1.15443 0.416166 0.212039 0.138724V0.485527L0.141359 0.554887V1.04041L0.0706796 1.10977V1.45658L0 1.5953V1.87274C0 3.3062 0.282718 4.43909 0.848155 5.27142C2.07327 7.21352 5.46589 8.18457 11.026 8.18457H13.7825C11.7564 8.73945 10.0365 9.7105 8.62291 11.0977C6.691 12.8086 5.72504 14.9357 5.72504 17.4789V17.8257L5.79572 17.8951V18.2419C2.59158 18.658 0.989514 20.3921 0.989514 23.4439C0.989514 24.3687 1.06019 25.1548 1.20155 25.8022C1.39003 26.4496 1.71987 26.9582 2.19107 27.3281V27.2588C2.37955 27.3975 2.61514 27.6287 2.89786 27.9524C3.2277 28.2298 3.53398 28.4841 3.8167 28.7153C3.8167 27.1894 4.40569 26.4264 5.58369 26.4264L5.72504 26.3571H5.8664V36.345C5.77216 36.5762 5.67793 36.8306 5.58369 37.108C5.53657 37.293 5.51301 37.4317 5.51301 37.5242V37.6629C5.41877 37.7554 5.34809 37.8941 5.30097 38.079C5.30097 38.2178 5.27741 38.3102 5.23029 38.3565H5.8664L5.93708 38.2871H6.2198L6.29048 38.2178C6.90304 38.1253 7.79831 37.7091 8.97631 36.9693C12.2747 34.796 13.9239 32.3221 13.9239 29.5477V11.1671C13.9239 9.87235 14.3715 8.92441 15.2668 8.32329L15.1254 8.11521C15.3139 8.06897 15.5259 8.04585 15.7615 8.04585V36.345C12.5103 36.4375 9.58886 37.293 6.99728 38.9114C4.40569 40.5298 2.42667 42.7956 1.06019 45.7087C4.12298 43.9516 7.42135 43.073 10.9553 43.073C14.5364 43.073 18.2118 44.0441 21.9813 45.9862C25.0912 42.7956 29.7797 40.7841 36.0466 39.9518L36.1879 39.4663ZM18.3767 36.2757V28.4379C19.2248 28.068 19.9552 27.883 20.5678 27.883C21.5101 27.6518 22.0991 27.5362 22.3347 27.5362L22.6881 27.6749C23.9133 27.6749 25.5389 27.9061 27.565 28.3685V39.1888C25.0677 37.7091 22.0049 36.7381 18.3767 36.2757ZM24.0311 15.8142H21.1332C19.861 15.8142 18.9421 15.5368 18.3767 14.9819V7.62968C19.3191 7.67592 20.2379 7.69904 21.1332 7.69904H23.8897C24.4551 7.74528 24.9028 7.76841 25.2326 7.76841H25.8687L25.9394 7.83777C27.0232 8.39265 27.565 8.99378 27.565 9.64114V15.0513C25.3504 15.5599 24.1724 15.8142 24.0311 15.8142ZM22.5468 24.9699L21.7693 25.0392C21.251 25.1317 20.7798 25.2242 20.3557 25.3167C19.4133 25.5479 18.7536 25.6635 18.3767 25.6635V17.9644C19.1777 18.1956 20.073 18.3112 21.0625 18.3112C21.1568 18.3575 21.2981 18.3806 21.4866 18.3806H23.819C24.2431 18.3806 24.9263 18.2881 25.8687 18.1032C26.2928 18.0569 26.6462 17.9876 26.9289 17.8951C27.0703 17.8951 27.1881 17.8951 27.2823 17.8951C27.3766 17.8488 27.4708 17.8257 27.565 17.8257V25.7328C25.7745 25.2242 24.1017 24.9699 22.5468 24.9699ZM2.26175 27.3975H2.33243C2.28531 27.3975 2.26175 27.3744 2.26175 27.3281H2.19107L2.26175 27.3975Z" fill="white"/>
<path d="M60.1577 25.1086C59.5923 25.386 58.4614 26.0103 56.7651 26.9813C55.1159 27.9061 52.8541 29.2009 49.9798 30.8655C49.5558 31.0967 49.0846 31.3973 48.5662 31.7672V36.9693C50.027 37.2005 51.3699 37.501 52.595 37.871C53.8672 38.2409 55.0452 38.6802 56.129 39.1888L57.8253 37.4548L59.5923 39.0501L53.1604 45.9862L52.4536 45.6394C51.4641 45.1307 50.4982 44.6452 49.5558 44.1828C48.6134 43.7666 47.5296 43.4429 46.3045 43.2117C44.2312 42.7956 42.4407 42.5875 40.9329 42.5875C40.3674 42.5875 39.802 42.6337 39.2365 42.7262C38.6711 42.7725 38.1057 42.8418 37.5402 42.9343C37.6345 42.7031 37.7287 42.5181 37.823 42.3794C37.9172 42.1944 38.0114 42.0557 38.1057 41.9632V42.0326C38.4355 41.524 38.6947 41.1078 38.8831 40.7841C39.1187 40.4604 39.2601 40.2755 39.3072 40.2292C39.6371 39.8131 40.2732 39.2582 41.2156 38.5646V21.7793C41.2156 21.0857 40.8386 19.9297 40.0847 18.3112V17.3402L40.7208 17.9644H41.1449L41.2156 18.0338H41.4276L41.6397 18.1032H41.9224C45.6448 18.1032 49.8385 16.5772 54.5033 13.5253C54.7389 14.3577 55.0452 15.2594 55.4222 16.2304C55.7991 17.2015 56.3174 18.2881 56.9771 19.4904C57.5897 20.5539 58.1551 21.5481 58.6734 22.4729C59.2389 23.3514 59.7572 24.1144 60.2284 24.7618L60.1577 25.1086ZM49.1317 19.6291L48.5662 19.7678V28.646L52.3829 26.2184C52.1945 25.9409 51.9589 25.5941 51.6762 25.1779C51.4406 24.7155 51.1578 24.1375 50.828 23.4439C50.4982 22.8428 50.1919 22.2186 49.9092 21.5712C49.6264 20.9238 49.3673 20.2765 49.1317 19.6291Z" fill="white"/>
<path d="M84.1103 4.02292H83.5449L83.4035 4.09228H83.5449C81.9428 4.09228 80.3879 3.3062 78.8801 1.73402C78.5031 1.27162 78.1968 0.947933 77.9612 0.762971C77.7727 0.531768 77.6314 0.369926 77.5371 0.277443C73.8618 4.62405 70.0687 6.79736 66.1577 6.79736H65.4509C65.2153 6.79736 64.9797 6.75111 64.7441 6.65863V7.35224L64.8148 7.49096C64.9091 7.72216 64.9797 7.93025 65.0269 8.11521C65.074 8.30017 65.1211 8.43889 65.1682 8.53137V8.46201L65.2389 15.3981H65.1682C64.7441 15.3981 64.5085 15.375 64.4614 15.3287C63.8489 15.3287 63.519 15.3056 63.4719 15.2594C62.8122 15.2594 62.3175 15.19 61.9876 15.0513V16.2998L62.0583 16.4385V16.8547L62.129 17.0627V18.8661C62.0819 19.0973 62.0583 19.5829 62.0583 20.3227H62.5531L62.6944 20.2533C63.9667 20.2533 64.8148 20.184 65.2389 20.0453V37.8016C63.3541 38.6339 62.129 40.1367 61.5636 42.3101C61.8463 42.2176 62.1054 42.1482 62.341 42.102C62.6238 42.0557 62.8829 42.0326 63.1185 42.0326L63.2599 41.9632H63.4012C66.0399 41.9632 68.9613 43.3273 72.1655 46.0555L79.7282 38.9114L78.2439 37.5242L76.689 39.1195C76.2178 38.7958 75.8173 38.5415 75.4874 38.3565C75.1576 38.1715 74.9455 38.0328 74.8513 37.9403C74.4743 37.9403 74.0974 37.8247 73.7204 37.5935C73.2492 37.5935 72.8723 37.5242 72.5896 37.3854V20.184C72.9665 20.2765 73.3435 20.3227 73.7204 20.3227H75.134C75.1812 20.3227 75.2047 20.3458 75.2047 20.3921C75.299 20.4383 75.3932 20.4614 75.4874 20.4614H75.7701C77.1837 20.7389 78.079 20.8776 78.456 20.8776L78.5267 20.9469H79.4455L79.0214 20.4614V19.7678L78.9507 19.6291V19.2823C78.9507 18.3575 79.0214 17.4327 79.1628 16.5079V16.1611L79.2335 16.0223V15.8142L79.3041 15.7449V15.1206C78.9272 15.2131 78.5738 15.2825 78.2439 15.3287C77.9612 15.3287 77.7492 15.3287 77.6078 15.3287C77.278 15.5137 75.6288 15.6062 72.6602 15.6062L72.5896 15.5368V7.69904L72.6602 7.62968H72.5896C72.9194 7.58344 73.155 7.49096 73.2964 7.35224L73.4377 7.28288L73.5084 7.14416C74.4979 8.16145 75.9822 8.67009 77.9612 8.67009C78.3853 8.67009 78.6445 8.64697 78.7387 8.60073C79.9167 8.55449 81.0711 8.13833 82.202 7.35224C83.3329 6.51991 84.0632 5.52574 84.3931 4.36973L84.1103 4.02292Z" fill="white"/>
<path d="M92.9657 45.9862C90.5155 43.9053 87.6176 42.4719 84.2721 41.6858C85.3559 39.9749 86.4868 38.8189 87.6647 38.2178V9.91859L87.2407 7.76841C87.2407 7.72216 87.2171 7.69904 87.17 7.69904C87.17 7.6528 87.17 7.60656 87.17 7.56032V7.62968C87.1229 7.5372 87.0993 7.37536 87.0993 7.14416L86.958 6.93607L86.8873 6.86672C86.8873 6.72799 86.8637 6.61239 86.8166 6.51991L86.7459 6.38119V5.4795C87.0286 5.61822 87.2407 5.7107 87.382 5.75694C87.5234 5.75694 87.6647 5.75694 87.8061 5.75694C89.4553 5.75694 92.0469 4.36973 95.5809 1.5953L95.9343 1.87274C95.7458 2.24267 95.5809 2.68195 95.4395 3.19059C95.2981 3.69924 95.1332 4.27725 94.9447 4.92461C94.6149 6.21935 94.45 7.21352 94.45 7.90712V37.5242C95.0154 37.8016 95.7693 38.2871 96.7117 38.9807L96.6411 38.9114H96.7117L96.8531 38.9807C97.0887 39.2119 97.23 39.3738 97.2772 39.4663L97.4892 39.6743L98.5494 38.7033L99.963 40.5067L92.9657 45.9862Z" fill="white"/>
<path d="M100.829 40.368C100.735 40.5067 100.688 40.5992 100.688 40.6454C100.735 40.6454 100.806 40.576 100.9 40.4373L100.829 40.368ZM124.366 37.4548V16.7853C120.408 15.5368 116.497 14.2421 112.633 12.9011C108.958 15.0282 105.164 16.6928 101.253 17.8951V18.0338C101.253 18.5424 101.607 19.2592 102.314 20.184V38.4952L101.536 39.605C101.395 39.7899 101.253 39.9518 101.112 40.0905L100.9 40.4373C104.811 40.8997 108.934 43.2117 113.269 47.3734L118.005 42.4488L123.376 47.3734L129.667 40.368L127.051 40.0211C125.779 39.8362 124.884 38.9807 124.366 37.4548ZM116.096 39.4663C114.447 38.2178 112.468 37.0386 110.159 35.9289V18.3112L109.876 18.1032V18.0338C110.159 18.0338 112.232 18.8661 116.096 20.5308V39.4663Z" fill="white"/>
<path d="M139.596 44.599C137.146 42.3332 134.766 41.2003 132.457 41.2003C131.374 41.2003 130.573 41.5933 130.054 42.3794V41.4084C130.054 41.2696 130.243 40.7379 130.62 39.8131C131.279 38.4258 132.175 37.4317 133.306 36.8306V20.0453H132.104C131.774 20.2302 131.397 20.3689 130.973 20.4614C130.926 20.5077 130.714 20.577 130.337 20.6695L130.266 20.8082H130.125L129.347 21.2244V20.7389C129.347 20.5539 129.371 20.4152 129.418 20.3227V20.1146L129.489 19.9759C129.489 19.7909 129.512 19.6522 129.56 19.5597V19.0742C129.56 18.9355 129.56 18.7968 129.56 18.658C129.607 18.5193 129.654 18.3575 129.701 18.1725V17.7563L129.63 17.5483V16.924C129.442 16.4154 129.347 15.583 129.347 14.427C129.96 14.7507 130.455 14.9819 130.832 15.1206C131.256 15.2594 131.586 15.3518 131.821 15.3981C131.915 15.3518 132.222 15.3287 132.74 15.3287H133.306V12.2075L133.235 12.0688V11.3058C133.188 11.2596 133.141 11.1902 133.094 11.0977C133.046 11.0052 132.999 10.9128 132.952 10.8203C132.952 10.6816 132.929 10.566 132.881 10.4735V10.4041C132.787 10.3116 132.74 10.1267 132.74 9.84923L133.235 9.7105L133.306 9.84923H133.659V9.91859C136.298 9.91859 138.795 8.48513 141.151 5.61822V6.51991L141.08 6.58927C141.033 6.68175 140.986 6.82047 140.939 7.00543C140.939 7.1904 140.892 7.4216 140.798 7.69904V7.76841C140.798 7.90712 140.774 8.02273 140.727 8.11521C140.538 8.85505 140.444 9.40994 140.444 9.77987V15.3287H142.635L142.777 15.3981C143.531 15.3981 144.355 15.0744 145.25 14.427V15.19C145.203 15.2825 145.18 15.4212 145.18 15.6062C145.038 15.8374 144.968 16.4154 144.968 17.3402H145.038C145.038 18.3112 145.156 19.606 145.392 21.2244L144.614 20.8082L144.544 20.7389H144.473C143.955 20.5539 143.366 20.4152 142.706 20.3227C142.046 20.184 141.292 20.0915 140.444 20.0453V35.9982C140.774 36.3219 141.151 36.4837 141.575 36.4837L141.787 36.5531C141.928 36.5993 142.023 36.6456 142.07 36.6918C142.211 36.8306 142.353 36.8999 142.494 36.8999C142.541 36.9462 142.588 36.9924 142.635 37.0386C142.729 37.0386 142.8 37.0618 142.847 37.108H142.777C142.918 37.2005 143.083 37.3392 143.271 37.5242C143.507 37.6629 143.766 37.8016 144.049 37.9403L144.756 37.2467L146.169 38.842L139.596 44.599Z" fill="white"/>
<path d="M157.608 45.9168C156.854 45.8706 156.1 45.7087 155.346 45.4313C154.592 45.2001 153.885 44.807 153.226 44.2522C151.812 43.1424 151.105 41.8708 151.105 40.4373V22.9584C150.398 22.9122 149.857 22.496 149.48 21.7099L148.49 22.2648L147.501 20.8776L147.713 20.5308L147.783 20.6001L147.925 20.4614L148.066 20.3921C148.537 19.9759 149.055 19.5135 149.621 19.0048C150.186 18.45 150.94 17.7795 151.883 16.9934C152.401 16.6697 153.037 16.1611 153.791 15.4674L154.074 15.2594C154.215 15.1206 154.356 14.9819 154.498 14.8432V14.0109C156.43 16.6928 158.126 18.0338 159.587 18.0338C159.917 18.0338 160.67 17.7101 161.848 17.0627V17.8951C161.754 18.1725 161.707 18.4962 161.707 18.8661C161.33 19.9297 160.835 20.8082 160.223 21.5018C159.61 22.1492 158.974 22.6116 158.314 22.889V37.6629C158.314 37.9403 158.432 38.3102 158.668 38.7727C159.092 39.6512 160.058 40.0905 161.566 40.0905C162.084 40.0905 162.697 39.9518 163.403 39.6743L163.686 40.1599L157.608 45.9168ZM155.699 13.3866H155.134V13.3173H154.427L154.286 13.2479C152.495 13.2479 151.388 12.5312 150.964 11.0977L149.833 11.6526L148.914 10.1267C149.291 9.75675 149.692 9.4793 150.116 9.29434C150.54 9.06314 150.94 8.85506 151.317 8.67009L151.176 8.80882C151.317 8.71633 151.506 8.57761 151.741 8.39265C152.024 8.16145 152.283 7.95337 152.519 7.76841C152.849 7.5372 153.226 7.25976 153.65 6.93607C154.121 6.61239 154.616 6.26559 155.134 5.89566C156.359 7.6528 157.631 8.53137 158.951 8.53137C159.186 8.43889 159.375 8.39265 159.516 8.39265C159.705 8.34641 159.917 8.27705 160.152 8.18457H160.081L160.223 8.04585H160.294L160.364 7.97648H160.435L160.506 7.90712H161V8.53137C161 9.17874 160.835 9.80299 160.506 10.4041C160.223 10.959 159.822 11.4676 159.304 11.93C158.833 12.3462 158.267 12.693 157.608 12.9705C156.995 13.2479 156.359 13.3866 155.699 13.3866Z" fill="white"/>
<path d="M189.629 38.079C189.912 39.42 190.453 40.2755 191.254 40.6454C186.166 41.3852 182.09 43.3967 179.027 46.6798C176.294 43.9053 171.535 42.1713 164.75 41.4777C164.561 41.4777 164.467 41.4084 164.467 41.2696C164.467 40.9922 164.75 40.5067 165.315 39.8131C166.116 38.7495 166.705 38.0328 167.082 37.6629V20.1146C166.328 19.1898 165.951 18.45 165.951 17.8951V17.8257C170.852 17.5483 174.81 16.1611 177.825 13.6641C183.244 16.2998 187.626 17.7795 190.972 18.1032C190.076 19.1204 189.629 19.8372 189.629 20.2533V38.079ZM181.359 21.2244C177.543 19.6522 175.399 18.8661 174.928 18.8661C174.833 18.8661 174.786 18.8892 174.786 18.9355V37.1774C175.54 37.9634 177.731 38.7264 181.359 39.4663V21.2244Z" fill="white"/>
<path d="M219.136 18.1725C219.278 18.2188 219.349 18.3575 219.349 18.5887C219.349 18.9586 219.066 19.6522 218.5 20.6695V40.7841H221.257C220.786 40.7841 218.642 42.9343 214.825 47.2347C214.637 46.4486 212.516 44.1597 208.464 40.368H210.089V21.0857L207.333 18.7968L203.728 21.5018V40.5067H206.768C203.658 42.3101 201.561 44.021 200.477 45.6394C199.629 46.8416 199.158 47.4427 199.063 47.4427C199.016 47.4427 198.993 47.4196 198.993 47.3734L199.063 47.2347C198.639 45.385 196.448 43.3273 192.49 41.0616L192.349 40.6454H195.105V22.6116C194.446 20.0684 193.338 18.7505 191.783 18.658L198.003 14.0802C201.019 15.7911 202.762 17.0165 203.234 17.7563C204.317 17.6639 206.744 16.3923 210.514 13.9415L211.432 13.2479C214.637 15.7449 217.205 17.3864 219.136 18.1725Z" fill="white"/>
<path d="M222.379 40.368C222.285 40.5067 222.238 40.5992 222.238 40.6454C222.285 40.6454 222.355 40.576 222.45 40.4373L222.379 40.368ZM245.915 37.4548V16.7853C241.957 15.5368 238.046 14.2421 234.182 12.9011C230.507 15.0282 226.714 16.6928 222.803 17.8951V18.0338C222.803 18.5424 223.156 19.2592 223.863 20.184V38.4952L223.086 39.605C222.944 39.7899 222.803 39.9518 222.662 40.0905L222.45 40.4373C226.361 40.8997 230.484 43.2117 234.819 47.3734L239.554 42.4488L244.926 47.3734L251.216 40.368L248.601 40.0211C247.329 39.8362 246.434 38.9807 245.915 37.4548ZM237.646 39.4663C235.996 38.2178 234.017 37.0386 231.709 35.9289V18.3112L231.426 18.1032V18.0338C231.709 18.0338 233.782 18.8661 237.646 20.5308V39.4663Z" fill="white"/>
<path d="M257.329 13.1092C260.25 14.8201 261.947 16.0455 262.418 16.7853H262.63C262.818 16.7853 263.101 16.7159 263.478 16.5772C264.656 16.1611 266.399 15.19 268.708 13.6641L269.698 12.9705C272.101 15.1438 274.315 16.5079 276.342 17.0627C276.2 18.0338 275.635 18.8892 274.645 19.6291C273.75 20.3227 272.596 20.7389 271.182 20.8776C270.852 20.9238 270.546 20.9469 270.263 20.9469C268.708 20.9469 266.918 20.6695 264.892 20.1146C264.467 20.0221 264.091 19.9759 263.761 19.9759C262.96 19.9759 262.559 20.2533 262.559 20.8082V39.8131H265.598C262.488 41.6164 260.368 43.3273 259.237 44.9458C258.389 46.1942 257.894 46.8185 257.753 46.8185V46.6798L257.682 46.6104C257.635 46.4717 257.588 46.333 257.541 46.1942C257.352 45.7781 257.07 45.3157 256.693 44.807C255.562 43.2811 253.748 41.8014 251.25 40.368L251.18 39.9518H253.936V21.918C253.135 19.6522 251.957 18.4731 250.402 18.3806L257.329 13.1092Z" fill="white"/>
<path d="M306.929 17.7563V18.1032L306.859 18.1725C306.859 18.4962 306.741 18.8661 306.505 19.2823C306.317 19.6522 306.081 20.0221 305.798 20.3921C305.516 20.762 305.186 21.1088 304.809 21.4325C304.432 21.7099 304.079 21.918 303.749 22.0567V40.576C303.749 42.9805 301.699 44.6452 297.6 45.57C297.034 45.6625 296.492 45.7318 295.974 45.7781C295.503 45.8706 295.079 45.9168 294.702 45.9168H294.278C294.231 45.9168 294.019 45.9399 293.642 45.9862C288.647 46.3561 286.15 47.4659 286.15 49.3155C286.15 50.0091 286.597 50.3559 287.492 50.3559C287.917 50.3559 289.354 49.6854 291.804 48.3444C294.16 47.0497 296.28 46.4023 298.165 46.4023C299.814 46.4023 301.228 46.911 302.406 47.9283C303.584 48.9456 304.173 50.2172 304.173 51.7431C304.173 53.0841 303.655 54.1939 302.618 55.0724C301.628 55.951 300.403 56.3903 298.943 56.3903C297.623 56.3903 296.775 56.2053 296.398 55.8354V53.4771C297.152 53.8933 297.882 54.1014 298.589 54.1014H298.66L298.801 54.032H299.013C299.296 54.032 299.626 53.9164 300.003 53.6852C300.38 53.454 300.568 53.1997 300.568 52.9222C300.568 52.4598 300.262 52.2286 299.649 52.2286L299.508 52.1593H299.437C298.354 52.1593 296.893 52.7142 295.055 53.8239C293.971 54.5175 293.029 55.0493 292.228 55.4192C291.474 55.7892 290.885 56.0204 290.461 56.1128C290.225 56.1591 289.943 56.1822 289.613 56.1822C289.283 56.2284 288.859 56.2516 288.341 56.2516C287.54 56.2516 286.762 56.0897 286.008 55.766C285.254 55.4886 284.595 55.0955 284.029 54.5869C283.464 54.0783 282.992 53.4771 282.616 52.7835C282.286 52.1362 282.121 51.4194 282.121 50.6333V50.2865H282.191C282.286 47.9283 283.487 46.1943 285.796 45.0845C284.854 44.6683 284.006 44.0903 283.252 43.3505C282.121 42.3332 281.555 41.2928 281.555 40.2292V22.1261C281.555 21.0625 280.424 20.4152 278.163 20.184V19.6985L285.725 13.8721C286.055 14.0571 286.409 14.3114 286.786 14.6351C287.163 14.9588 287.516 15.3287 287.846 15.7449C288.647 16.8084 289.047 17.5945 289.047 18.1032L289.118 18.2419V18.658L289.189 18.7274V21.4325L299.791 14.427C301.251 16.3691 302.853 17.3402 304.597 17.3402H304.738L304.809 17.2708C305.61 17.2708 306.34 17.0165 307 16.5079V17.6176L306.929 17.7563ZM295.974 41.6858V22.7503C295.786 22.7041 295.597 22.6347 295.409 22.5422C295.22 22.4498 295.008 22.3573 294.772 22.2648L293.571 21.7099L289.259 24.6231V41.2696C289.259 42.1944 290.084 42.8187 291.733 43.1424H292.016C292.063 43.1424 292.11 43.1424 292.157 43.1424C292.204 43.1886 292.275 43.2117 292.369 43.2117C292.416 43.2117 292.44 43.2117 292.44 43.2117C292.487 43.258 292.534 43.2811 292.581 43.2811H293.005L293.147 43.2117C293.806 43.2117 294.443 43.0961 295.055 42.8649C295.668 42.5875 295.974 42.1944 295.974 41.6858Z" fill="white"/>
<path d="M89.9567 87.4568L89.8436 87.3458C89.6173 87.1238 89.5042 86.9758 89.5042 86.9018L89.4477 62.3686C89.4477 61.4436 89.2591 60.5925 88.8821 59.8154C88.5427 59.0013 88.0525 58.2983 87.4115 57.7062C86.8082 57.1142 86.0918 56.6701 85.2622 56.3741C84.4327 56.0411 83.5277 55.8746 82.5473 55.8746L66.2014 56.4296V56.5406H65.7489V56.5961H65.6924C64.9382 56.5961 64.1841 56.5591 63.43 56.4851C62.6758 56.3741 61.9217 56.2076 61.1676 55.9856V56.2631L61.111 56.3186V56.7071L61.0544 56.7627V57.0402L60.9979 57.1512V57.3732C60.9979 58.5203 61.2241 59.4269 61.6766 60.0929C62.657 61.6471 65.3719 62.4241 69.8213 62.4241H72.0271C70.4057 62.8682 69.0294 63.6453 67.8982 64.7553C66.3522 66.1245 65.5793 67.8266 65.5793 69.8618V70.1393L65.6358 70.1948V70.4723C63.0718 70.8054 61.7897 72.193 61.7897 74.6352C61.7897 75.3753 61.8463 76.0043 61.9594 76.5224C62.1102 77.0404 62.3742 77.4474 62.7512 77.7435V77.688C62.9021 77.799 63.0906 77.984 63.3168 78.243C63.5808 78.465 63.8259 78.6686 64.0521 78.8536C64.0521 77.6325 64.5235 77.0219 65.4661 77.0219L65.5793 76.9664H65.6924V84.9591C65.617 85.1441 65.5416 85.3476 65.4661 85.5697C65.4284 85.7177 65.4096 85.8287 65.4096 85.9027V86.0137C65.3342 86.0877 65.2776 86.1987 65.2399 86.3467C65.2399 86.4577 65.221 86.5317 65.1833 86.5687H65.6924L65.7489 86.5132H65.9752L66.0317 86.4577C66.5219 86.3837 67.2384 86.0507 68.181 85.4586C70.8205 83.7195 72.1402 81.7398 72.1402 79.5196V64.8109C72.1402 63.7748 72.4985 63.0162 73.2149 62.5352L73.1018 62.3686C73.2526 62.3316 73.4223 62.3131 73.6108 62.3131V84.9591C71.009 85.0331 68.6712 85.7177 66.5973 87.0128C64.5235 88.3079 62.9398 90.1211 61.8463 92.4523C64.2972 91.0461 66.9367 90.3431 69.7647 90.3431C72.6304 90.3431 75.5716 91.1201 78.5881 92.6743C81.0768 90.121 84.8286 88.5114 89.8436 87.8454L89.9567 87.4568ZM75.7035 84.9036V78.6316C76.3823 78.3355 76.9667 78.1875 77.4569 78.1875C78.211 78.0025 78.6824 77.91 78.8709 77.91L79.1537 78.021C80.1341 78.021 81.435 78.206 83.0564 78.576V87.2348C81.0579 86.0507 78.607 85.2736 75.7035 84.9036ZM80.2283 68.5297H77.9094C76.8913 68.5297 76.156 68.3077 75.7035 67.8636V61.9801C76.4577 62.0171 77.1929 62.0356 77.9094 62.0356H80.1152C80.5677 62.0726 80.9259 62.0911 81.1899 62.0911H81.6989L81.7555 62.1466C82.6227 62.5907 83.0564 63.0717 83.0564 63.5897V67.9191C81.2841 68.3262 80.3415 68.5297 80.2283 68.5297ZM79.0406 75.8563L78.4184 75.9118C78.0037 75.9858 77.6266 76.0598 77.2872 76.1338C76.5331 76.3188 76.0052 76.4114 75.7035 76.4114V70.2503C76.3445 70.4353 77.061 70.5278 77.8528 70.5278C77.9282 70.5648 78.0414 70.5834 78.1922 70.5834H80.0587C80.398 70.5834 80.9448 70.5093 81.6989 70.3613C82.0383 70.3243 82.3211 70.2688 82.5473 70.1948C82.6604 70.1948 82.7547 70.1948 82.8301 70.1948C82.9055 70.1578 82.9809 70.1393 83.0564 70.1393V76.4669C81.6235 76.0598 80.2849 75.8563 79.0406 75.8563ZM62.8078 77.799H62.8644C62.8267 77.799 62.8078 77.7805 62.8078 77.7435H62.7512L62.8078 77.799Z" fill="white"/>
<path d="M97.5433 66.365C99.8811 67.7341 101.239 68.7147 101.616 69.3067H101.785C101.936 69.3067 102.162 69.2512 102.464 69.1402C103.407 68.8072 104.802 68.0301 106.649 66.809L107.441 66.254C109.364 67.9931 111.137 69.0847 112.758 69.5288C112.645 70.3058 112.192 70.9904 111.401 71.5824C110.684 72.1375 109.76 72.4705 108.629 72.5815C108.365 72.6185 108.12 72.637 107.894 72.637C106.649 72.637 105.217 72.415 103.595 71.971C103.256 71.897 102.954 71.86 102.69 71.86C102.049 71.86 101.729 72.082 101.729 72.526V87.7343H104.161C101.672 89.1775 99.9754 90.5466 99.0704 91.8417C98.3917 92.8408 97.9958 93.3403 97.8826 93.3403V93.2293L97.8261 93.1738C97.7884 93.0628 97.7507 92.9518 97.713 92.8408C97.5621 92.5078 97.3359 92.1377 97.0342 91.7307C96.1293 90.5096 94.6776 89.3255 92.6791 88.1784L92.6225 87.8454H94.8284V73.4141C94.1874 71.6009 93.2447 70.6574 92.0004 70.5834L97.5433 66.365Z" fill="white"/>
<path d="M114.894 88.1784C114.819 88.2894 114.781 88.3634 114.781 88.4004C114.819 88.4004 114.875 88.3449 114.951 88.2339L114.894 88.1784ZM133.729 85.8472V69.3067C130.561 68.3077 127.432 67.2716 124.34 66.1985C121.398 67.9006 118.363 69.2327 115.233 70.1948V70.3058C115.233 70.7129 115.516 71.2864 116.082 72.0265V86.6797L115.46 87.5678C115.346 87.7158 115.233 87.8454 115.12 87.9564L114.951 88.2339C118.08 88.6039 121.38 90.4541 124.849 93.7844L128.638 89.8435L132.937 93.7844L137.971 88.1784L135.878 87.9008C134.86 87.7528 134.143 87.0683 133.729 85.8472ZM127.111 87.4568C125.791 86.4577 124.208 85.5142 122.36 84.6261V70.5278L122.134 70.3613V70.3058C122.36 70.3058 124.019 70.9719 127.111 72.304V87.4568Z" fill="white"/>
<path d="M160.283 92.7298C159.792 93.3588 158.661 94.3024 156.889 95.5605C156.814 95.5975 156.738 95.653 156.663 95.727C155.758 96.3561 155.023 96.8556 154.457 97.2257C153.891 97.6327 153.495 97.9657 153.269 98.2248C152.854 98.5948 152.383 99.0203 151.855 99.5014C151.365 99.9824 150.856 100.482 150.328 101C150.064 100.889 149.894 100.796 149.819 100.722C149.781 100.648 149.668 100.537 149.48 100.389H149.536C149.385 100.278 149.216 100.149 149.027 100.001C148.839 99.8899 148.65 99.7419 148.462 99.5569H148.518C148.443 99.4829 148.367 99.4274 148.292 99.3904C148.254 99.3904 148.141 99.3349 147.953 99.2238C147.123 98.5948 145.935 98.2803 144.389 98.2803C143.032 98.2803 141.505 98.7798 139.808 99.7789C140.487 97.8177 141.712 96.3561 143.484 95.394C145.068 94.5059 146.765 94.0619 148.575 94.0619C150.762 94.0619 152.44 94.4689 153.609 95.283C154.966 94.0619 155.645 93.0998 155.645 92.3968C155.645 91.9527 155.23 91.3237 154.4 90.5096C153.609 89.8805 153.118 89.048 152.93 88.0119C150.592 89.196 148.612 90.7686 146.991 92.7298C145.219 90.4726 143.447 89.344 141.674 89.344C141.486 89.344 141.373 89.3625 141.335 89.3995C140.996 89.3995 140.374 89.529 139.469 89.788C139.393 89.825 139.186 89.8435 138.846 89.8435C138.846 89.2515 139.148 88.5484 139.751 87.7343C140.053 87.3273 140.317 87.0128 140.543 86.7908C140.769 86.5687 140.977 86.4207 141.165 86.3467V71.971C141.128 71.897 141.09 71.7859 141.052 71.6379C141.015 71.5639 140.977 71.4899 140.939 71.4159C140.939 71.3419 140.92 71.2494 140.883 71.1384C140.694 70.6574 140.562 70.3613 140.487 70.2503V69.6398C141.015 70.0098 141.712 70.1948 142.579 70.1948L142.749 70.2503H143.032C145.596 70.2503 148.348 69.5658 151.29 68.1966C151.516 68.0856 151.893 67.9006 152.421 67.6416C152.949 67.3826 153.552 67.0495 154.231 66.6425C155.55 68.8257 157.096 69.9173 158.869 69.9173H159.038C159.34 69.7693 159.698 69.6028 160.113 69.4178C160.565 69.1957 160.943 68.9922 161.244 68.8072C161.169 69.8063 160.905 70.6759 160.452 71.4159C160 72.119 159.397 72.711 158.642 73.1921V84.5706C158.642 85.6067 159.095 86.6983 160 87.8454L160.056 87.9564H160L160.283 88.1784L160.339 88.2894H160.283C160.924 89.1405 161.244 89.862 161.244 90.4541C161.244 91.1942 160.924 91.9527 160.283 92.7298ZM152.76 85.7917V73.7471C151.742 73.7471 150.837 73.2106 150.045 72.1375C149.97 72.0635 149.876 71.9525 149.762 71.8045C149.687 71.6194 149.574 71.4344 149.423 71.2494V71.3049H149.367V71.2494C148.914 71.4714 148.518 71.5824 148.179 71.5824C148.028 71.6564 147.877 71.7305 147.726 71.8045C147.575 71.8785 147.368 71.9155 147.104 71.9155V85.5142C147.33 85.5882 147.576 85.6252 147.839 85.6252C148.895 85.8102 149.819 86.2912 150.611 87.0683L150.667 87.0128L150.894 86.9018L150.837 86.9573C150.988 86.8833 151.233 86.7353 151.572 86.5132C151.949 86.2542 152.289 86.0322 152.59 85.8472C152.666 85.8472 152.722 85.8287 152.76 85.7917Z" fill="white"/>
<path d="M183.246 86.3467C183.472 87.4198 183.906 88.1044 184.547 88.4004C180.474 88.9925 177.213 90.6021 174.762 93.2293C172.575 91.0091 168.766 89.6215 163.336 89.0665C163.186 89.0665 163.11 89.011 163.11 88.9C163.11 88.6779 163.336 88.2894 163.789 87.7343C164.43 86.8833 164.901 86.3097 165.203 86.0137V71.971C164.6 71.2309 164.298 70.6389 164.298 70.1948V70.1393C168.22 69.9173 171.387 68.8072 173.8 66.809C178.136 68.9182 181.643 70.1023 184.32 70.3613C183.604 71.1754 183.246 71.7489 183.246 72.082V86.3467ZM176.628 72.859C173.574 71.6009 171.858 70.9719 171.481 70.9719C171.406 70.9719 171.368 70.9904 171.368 71.0274V85.6252C171.971 86.2542 173.725 86.8648 176.628 87.4568V72.859Z" fill="white"/>
<path d="M207.99 70.4168C208.103 70.4538 208.16 70.5648 208.16 70.7499C208.16 71.0459 207.933 71.6009 207.481 72.415V88.5114H209.687C209.31 88.5114 207.594 90.2321 204.54 93.6734C204.389 93.0443 202.692 91.2126 199.449 88.1784H200.75V72.748L198.544 70.9164L195.66 73.0811V88.2894H198.092C195.603 89.7325 193.925 91.1016 193.058 92.3968C192.379 93.3588 192.002 93.8399 191.927 93.8399C191.889 93.8399 191.87 93.8214 191.87 93.7844L191.927 93.6734C191.587 92.1932 189.834 90.5466 186.667 88.7334L186.554 88.4004H188.759V73.9691C188.232 71.934 187.345 70.8794 186.101 70.8054L191.078 67.1421C193.492 68.5112 194.887 69.4918 195.264 70.0838C196.131 70.0098 198.073 68.9922 201.09 67.031L201.825 66.476C204.389 68.4742 206.444 69.7878 207.99 70.4168Z" fill="white"/>
<path d="M233.492 67.8081C232.511 70.7684 230.437 73.8396 227.27 77.0219L232.587 76.9109C232.587 76.9479 232.568 77.0219 232.53 77.1329C232.53 77.2439 232.53 77.3179 232.53 77.3549C232.492 77.4289 232.473 77.5215 232.473 77.6325L232.417 77.688V77.799L232.304 77.91V78.021L232.247 78.132C232.247 78.206 232.228 78.2615 232.191 78.2985C232.191 78.3355 232.191 78.3725 232.191 78.4095V78.354C232.153 78.465 232.115 78.5946 232.077 78.7426L232.021 78.9646V88.4004C232.021 88.4744 232.04 88.5299 232.077 88.5669V88.7334L232.134 88.8444V88.7889C232.172 88.8259 232.191 88.863 232.191 88.9L232.247 89.1775L232.191 89.0665L232.134 89.011C232.134 89.048 232.172 89.122 232.247 89.233C232.36 89.418 232.473 89.603 232.587 89.788L232.813 90.2321C232.398 90.2321 232.153 90.2136 232.077 90.1766H232.134C232.096 90.1396 232.04 90.1211 231.964 90.1211C231.512 90.1211 231.135 90.1211 230.833 90.1211C230.531 90.0841 230.286 90.01 230.098 89.899C229.532 89.899 229.193 89.8805 229.08 89.8435H228.74C225.875 89.8435 223.518 90.8056 221.67 92.7298L220.03 91.1201C219.728 90.8611 219.446 90.6576 219.182 90.5096C218.918 90.3986 218.616 90.3431 218.277 90.3431C218.051 90.2321 217.73 90.1766 217.315 90.1766C215.581 90.1766 214.374 90.9906 213.695 92.6188H212.055C212.357 91.3237 212.885 90.01 213.639 88.6779C214.393 87.3088 215.411 85.8472 216.693 84.293L216.919 84.071C217.032 83.96 217.164 83.812 217.315 83.627C217.504 83.442 217.711 83.2385 217.937 83.0164L214.204 82.8499L214.6 82.4614L214.544 82.6279C214.883 82.1839 215.053 81.7213 215.053 81.2403L215.109 81.1293L215.053 71.4714C215.053 71.4344 215.034 71.4159 214.996 71.4159C214.996 71.3789 214.996 71.3419 214.996 71.3049V71.3604C214.959 71.3234 214.94 71.2309 214.94 71.0829L214.77 70.6944V70.6389C214.695 70.5648 214.657 70.4538 214.657 70.3058V69.8063C215.034 70.1393 215.43 70.3058 215.845 70.3058C216.109 70.4538 216.769 70.5278 217.824 70.5278C217.862 70.5648 218.051 70.5834 218.39 70.5834C220.124 70.5834 221.802 70.1578 223.424 69.3067C223.575 69.2327 224.329 68.5297 225.686 67.1976C226.893 68.5667 228.024 69.2512 229.08 69.2512C230.173 69.2512 231.059 68.7147 231.738 67.6416L233.265 67.5306L233.492 67.8081ZM226.195 87.9564V80.9628L226.082 80.8517H223.198L220.256 83.738C219.992 83.997 219.691 84.33 219.351 84.7371C219.012 85.1071 218.597 85.5326 218.107 86.0137C218.56 85.9397 218.955 85.8842 219.295 85.8472C219.634 85.7732 219.898 85.7362 220.087 85.7362C222.047 85.7362 223.725 86.5872 225.121 88.2894L225.347 88.1784L225.516 88.1229C225.592 88.1229 225.724 88.0859 225.912 88.0119H226.139L226.195 87.9564ZM228.062 73.2476C227.421 73.5066 226.742 73.6361 226.026 73.6361C224.932 73.6361 223.688 73.0996 222.293 72.0265C222.179 72.0635 222.104 72.1005 222.066 72.1375H221.84C221.614 72.2485 221.406 72.304 221.218 72.304V79.2976H221.84C222.142 79.1126 222.556 78.7611 223.084 78.243C223.65 77.725 224.366 77.0404 225.234 76.1893C226.516 74.8572 227.458 73.8766 228.062 73.2476Z" fill="white"/>
</svg>
